ISO-10303-21;
HEADER;
/* Generated by software containing ST-Developer
 * from STEP Tools, Inc. (www.steptools.com) 
 */
/* OPTION: using custom renumber hook */

FILE_DESCRIPTION(
/* description */ ('STEP AP242 Edition 2',
'CAx-IF Rec.Pracs.---Representation and Presentation of Product Manufa
cturing Information (PMI)---4.0---2014-10-13',
'CAx-IF Rec.Pracs.---3D Tessellated Geometry---0.4---2014-09-14','2;1',
'CAx-IF Rec.Pracs.---User Defined Attributes---1.5---2016-08-15'),
/* implementation_level */ '2;1');

FILE_NAME(
/* name */ 'Base - Base',
/* time_stamp */ '2026-02-18T00:51:25Z',
/* author */ (''),
/* organization */ (''),
/* preprocessor_version */ 'ST-DEVELOPER v20',
/* originating_system */ 'ONSHAPE BY PTC INC, 1.210',
/* authorisation */ '  ');

FILE_SCHEMA (('AP242_MANAGED_MODEL_BASED_3D_ENGINEERING_MIM_LF { 1 0 10303 442 3 1 4 }'));
ENDSEC;

DATA;
#10=SHAPE_REPRESENTATION_RELATIONSHIP('','',#687,#11);
#11=ADVANCED_BREP_SHAPE_REPRESENTATION('',(#685),#1181);
#12=CONICAL_SURFACE('',#765,0.0025,0.785398163397448);
#13=CONICAL_SURFACE('',#770,0.0025,0.785398163397448);
#14=CIRCLE('',#691,0.0375);
#15=CIRCLE('',#692,0.0375);
#16=CIRCLE('',#693,0.0375);
#17=CIRCLE('',#696,0.0375);
#18=CIRCLE('',#697,0.0375);
#19=CIRCLE('',#698,0.0375);
#20=CIRCLE('',#701,0.0375);
#21=CIRCLE('',#702,0.0375);
#22=CIRCLE('',#703,0.0375);
#23=CIRCLE('',#706,0.0375);
#24=CIRCLE('',#707,0.0375);
#25=CIRCLE('',#708,0.0375);
#26=CIRCLE('',#710,0.0395);
#27=CIRCLE('',#711,0.0395);
#28=CIRCLE('',#714,0.0355000000000026);
#29=CIRCLE('',#715,0.0355000000000026);
#30=CIRCLE('',#716,0.0354999999999977);
#31=CIRCLE('',#719,0.0355000000000026);
#32=CIRCLE('',#720,0.0355000000000026);
#33=CIRCLE('',#721,0.0354999999999977);
#34=CIRCLE('',#724,0.0355000000000027);
#35=CIRCLE('',#725,0.0355000000000027);
#36=CIRCLE('',#726,0.0354999999999977);
#37=CIRCLE('',#729,0.0355000000000026);
#38=CIRCLE('',#730,0.0355000000000026);
#39=CIRCLE('',#731,0.0354999999999977);
#40=CIRCLE('',#735,0.0334999999999972);
#41=CIRCLE('',#737,0.0315);
#42=CIRCLE('',#738,0.0315);
#43=CIRCLE('',#740,0.0334999999999972);
#44=CIRCLE('',#743,0.0035);
#45=CIRCLE('',#744,0.0035);
#46=CIRCLE('',#754,0.0035);
#47=CIRCLE('',#756,0.0025);
#48=CIRCLE('',#758,0.0035);
#49=CIRCLE('',#760,0.0025);
#50=CIRCLE('',#762,0.002);
#51=CIRCLE('',#764,0.002);
#52=CIRCLE('',#767,0.002);
#53=CIRCLE('',#769,0.002);
#54=CYLINDRICAL_SURFACE('',#690,0.0375);
#55=CYLINDRICAL_SURFACE('',#695,0.0375);
#56=CYLINDRICAL_SURFACE('',#700,0.0375);
#57=CYLINDRICAL_SURFACE('',#705,0.0375);
#58=CYLINDRICAL_SURFACE('',#709,0.0395);
#59=CYLINDRICAL_SURFACE('',#713,0.0355000000000026);
#60=CYLINDRICAL_SURFACE('',#718,0.0355000000000026);
#61=CYLINDRICAL_SURFACE('',#723,0.0355000000000027);
#62=CYLINDRICAL_SURFACE('',#728,0.0355000000000026);
#63=CYLINDRICAL_SURFACE('',#736,0.0315);
#64=CYLINDRICAL_SURFACE('',#739,0.0334999999999972);
#65=CYLINDRICAL_SURFACE('',#753,0.0035);
#66=CYLINDRICAL_SURFACE('',#757,0.0035);
#67=CYLINDRICAL_SURFACE('',#763,0.002);
#68=CYLINDRICAL_SURFACE('',#768,0.002);
#69=ORIENTED_EDGE('',*,*,#245,.F.);
#70=ORIENTED_EDGE('',*,*,#246,.T.);
#71=ORIENTED_EDGE('',*,*,#247,.T.);
#72=ORIENTED_EDGE('',*,*,#248,.T.);
#73=ORIENTED_EDGE('',*,*,#247,.F.);
#74=ORIENTED_EDGE('',*,*,#249,.T.);
#75=ORIENTED_EDGE('',*,*,#250,.T.);
#76=ORIENTED_EDGE('',*,*,#251,.T.);
#77=ORIENTED_EDGE('',*,*,#252,.T.);
#78=ORIENTED_EDGE('',*,*,#253,.T.);
#79=ORIENTED_EDGE('',*,*,#254,.F.);
#80=ORIENTED_EDGE('',*,*,#255,.T.);
#81=ORIENTED_EDGE('',*,*,#256,.T.);
#82=ORIENTED_EDGE('',*,*,#257,.T.);
#83=ORIENTED_EDGE('',*,*,#256,.F.);
#84=ORIENTED_EDGE('',*,*,#258,.T.);
#85=ORIENTED_EDGE('',*,*,#259,.T.);
#86=ORIENTED_EDGE('',*,*,#260,.T.);
#87=ORIENTED_EDGE('',*,*,#261,.T.);
#88=ORIENTED_EDGE('',*,*,#262,.T.);
#89=ORIENTED_EDGE('',*,*,#263,.F.);
#90=ORIENTED_EDGE('',*,*,#264,.T.);
#91=ORIENTED_EDGE('',*,*,#265,.T.);
#92=ORIENTED_EDGE('',*,*,#266,.T.);
#93=ORIENTED_EDGE('',*,*,#265,.F.);
#94=ORIENTED_EDGE('',*,*,#267,.T.);
#95=ORIENTED_EDGE('',*,*,#268,.T.);
#96=ORIENTED_EDGE('',*,*,#269,.T.);
#97=ORIENTED_EDGE('',*,*,#270,.T.);
#98=ORIENTED_EDGE('',*,*,#271,.T.);
#99=ORIENTED_EDGE('',*,*,#272,.F.);
#100=ORIENTED_EDGE('',*,*,#273,.T.);
#101=ORIENTED_EDGE('',*,*,#274,.T.);
#102=ORIENTED_EDGE('',*,*,#275,.T.);
#103=ORIENTED_EDGE('',*,*,#274,.F.);
#104=ORIENTED_EDGE('',*,*,#276,.T.);
#105=ORIENTED_EDGE('',*,*,#277,.T.);
#106=ORIENTED_EDGE('',*,*,#278,.T.);
#107=ORIENTED_EDGE('',*,*,#279,.T.);
#108=ORIENTED_EDGE('',*,*,#280,.T.);
#109=ORIENTED_EDGE('',*,*,#281,.T.);
#110=ORIENTED_EDGE('',*,*,#282,.F.);
#111=ORIENTED_EDGE('',*,*,#281,.F.);
#112=ORIENTED_EDGE('',*,*,#283,.F.);
#113=ORIENTED_EDGE('',*,*,#284,.F.);
#114=ORIENTED_EDGE('',*,*,#285,.F.);
#115=ORIENTED_EDGE('',*,*,#286,.F.);
#116=ORIENTED_EDGE('',*,*,#287,.T.);
#117=ORIENTED_EDGE('',*,*,#254,.T.);
#118=ORIENTED_EDGE('',*,*,#288,.F.);
#119=ORIENTED_EDGE('',*,*,#270,.F.);
#120=ORIENTED_EDGE('',*,*,#289,.F.);
#121=ORIENTED_EDGE('',*,*,#284,.T.);
#122=ORIENTED_EDGE('',*,*,#290,.F.);
#123=ORIENTED_EDGE('',*,*,#291,.F.);
#124=ORIENTED_EDGE('',*,*,#292,.F.);
#125=ORIENTED_EDGE('',*,*,#293,.F.);
#126=ORIENTED_EDGE('',*,*,#294,.T.);
#127=ORIENTED_EDGE('',*,*,#263,.T.);
#128=ORIENTED_EDGE('',*,*,#295,.F.);
#129=ORIENTED_EDGE('',*,*,#279,.F.);
#130=ORIENTED_EDGE('',*,*,#296,.F.);
#131=ORIENTED_EDGE('',*,*,#291,.T.);
#132=ORIENTED_EDGE('',*,*,#297,.F.);
#133=ORIENTED_EDGE('',*,*,#298,.F.);
#134=ORIENTED_EDGE('',*,*,#299,.F.);
#135=ORIENTED_EDGE('',*,*,#300,.F.);
#136=ORIENTED_EDGE('',*,*,#301,.T.);
#137=ORIENTED_EDGE('',*,*,#272,.T.);
#138=ORIENTED_EDGE('',*,*,#302,.F.);
#139=ORIENTED_EDGE('',*,*,#252,.F.);
#140=ORIENTED_EDGE('',*,*,#303,.F.);
#141=ORIENTED_EDGE('',*,*,#298,.T.);
#142=ORIENTED_EDGE('',*,*,#304,.F.);
#143=ORIENTED_EDGE('',*,*,#305,.F.);
#144=ORIENTED_EDGE('',*,*,#306,.F.);
#145=ORIENTED_EDGE('',*,*,#307,.F.);
#146=ORIENTED_EDGE('',*,*,#308,.T.);
#147=ORIENTED_EDGE('',*,*,#245,.T.);
#148=ORIENTED_EDGE('',*,*,#309,.F.);
#149=ORIENTED_EDGE('',*,*,#261,.F.);
#150=ORIENTED_EDGE('',*,*,#310,.F.);
#151=ORIENTED_EDGE('',*,*,#305,.T.);
#152=ORIENTED_EDGE('',*,*,#251,.F.);
#153=ORIENTED_EDGE('',*,*,#311,.T.);
#154=ORIENTED_EDGE('',*,*,#306,.T.);
#155=ORIENTED_EDGE('',*,*,#310,.T.);
#156=ORIENTED_EDGE('',*,*,#260,.F.);
#157=ORIENTED_EDGE('',*,*,#312,.T.);
#158=ORIENTED_EDGE('',*,*,#285,.T.);
#159=ORIENTED_EDGE('',*,*,#289,.T.);
#160=ORIENTED_EDGE('',*,*,#269,.F.);
#161=ORIENTED_EDGE('',*,*,#313,.T.);
#162=ORIENTED_EDGE('',*,*,#292,.T.);
#163=ORIENTED_EDGE('',*,*,#296,.T.);
#164=ORIENTED_EDGE('',*,*,#278,.F.);
#165=ORIENTED_EDGE('',*,*,#314,.T.);
#166=ORIENTED_EDGE('',*,*,#299,.T.);
#167=ORIENTED_EDGE('',*,*,#303,.T.);
#168=ORIENTED_EDGE('',*,*,#282,.T.);
#169=ORIENTED_EDGE('',*,*,#315,.T.);
#170=ORIENTED_EDGE('',*,*,#262,.F.);
#171=ORIENTED_EDGE('',*,*,#309,.T.);
#172=ORIENTED_EDGE('',*,*,#304,.T.);
#173=ORIENTED_EDGE('',*,*,#248,.F.);
#174=ORIENTED_EDGE('',*,*,#253,.F.);
#175=ORIENTED_EDGE('',*,*,#302,.T.);
#176=ORIENTED_EDGE('',*,*,#297,.T.);
#177=ORIENTED_EDGE('',*,*,#275,.F.);
#178=ORIENTED_EDGE('',*,*,#280,.F.);
#179=ORIENTED_EDGE('',*,*,#295,.T.);
#180=ORIENTED_EDGE('',*,*,#290,.T.);
#181=ORIENTED_EDGE('',*,*,#266,.F.);
#182=ORIENTED_EDGE('',*,*,#271,.F.);
#183=ORIENTED_EDGE('',*,*,#288,.T.);
#184=ORIENTED_EDGE('',*,*,#283,.T.);
#185=ORIENTED_EDGE('',*,*,#257,.F.);
#186=ORIENTED_EDGE('',*,*,#316,.T.);
#187=ORIENTED_EDGE('',*,*,#317,.T.);
#188=ORIENTED_EDGE('',*,*,#315,.F.);
#189=ORIENTED_EDGE('',*,*,#318,.F.);
#190=ORIENTED_EDGE('',*,*,#317,.F.);
#191=ORIENTED_EDGE('',*,*,#318,.T.);
#192=ORIENTED_EDGE('',*,*,#319,.F.);
#193=ORIENTED_EDGE('',*,*,#320,.F.);
#194=ORIENTED_EDGE('',*,*,#316,.F.);
#195=ORIENTED_EDGE('',*,*,#314,.F.);
#196=ORIENTED_EDGE('',*,*,#277,.F.);
#197=ORIENTED_EDGE('',*,*,#321,.T.);
#198=ORIENTED_EDGE('',*,*,#300,.T.);
#199=ORIENTED_EDGE('',*,*,#276,.F.);
#200=ORIENTED_EDGE('',*,*,#273,.F.);
#201=ORIENTED_EDGE('',*,*,#301,.F.);
#202=ORIENTED_EDGE('',*,*,#321,.F.);
#203=ORIENTED_EDGE('',*,*,#313,.F.);
#204=ORIENTED_EDGE('',*,*,#268,.F.);
#205=ORIENTED_EDGE('',*,*,#322,.T.);
#206=ORIENTED_EDGE('',*,*,#293,.T.);
#207=ORIENTED_EDGE('',*,*,#267,.F.);
#208=ORIENTED_EDGE('',*,*,#264,.F.);
#209=ORIENTED_EDGE('',*,*,#294,.F.);
#210=ORIENTED_EDGE('',*,*,#322,.F.);
#211=ORIENTED_EDGE('',*,*,#312,.F.);
#212=ORIENTED_EDGE('',*,*,#259,.F.);
#213=ORIENTED_EDGE('',*,*,#323,.T.);
#214=ORIENTED_EDGE('',*,*,#286,.T.);
#215=ORIENTED_EDGE('',*,*,#258,.F.);
#216=ORIENTED_EDGE('',*,*,#255,.F.);
#217=ORIENTED_EDGE('',*,*,#287,.F.);
#218=ORIENTED_EDGE('',*,*,#323,.F.);
#219=ORIENTED_EDGE('',*,*,#311,.F.);
#220=ORIENTED_EDGE('',*,*,#250,.F.);
#221=ORIENTED_EDGE('',*,*,#324,.T.);
#222=ORIENTED_EDGE('',*,*,#307,.T.);
#223=ORIENTED_EDGE('',*,*,#249,.F.);
#224=ORIENTED_EDGE('',*,*,#246,.F.);
#225=ORIENTED_EDGE('',*,*,#308,.F.);
#226=ORIENTED_EDGE('',*,*,#324,.F.);
#227=ORIENTED_EDGE('',*,*,#325,.F.);
#228=ORIENTED_EDGE('',*,*,#320,.T.);
#229=ORIENTED_EDGE('',*,*,#326,.T.);
#230=ORIENTED_EDGE('',*,*,#325,.T.);
#231=ORIENTED_EDGE('',*,*,#327,.F.);
#232=ORIENTED_EDGE('',*,*,#319,.T.);
#233=ORIENTED_EDGE('',*,*,#328,.T.);
#234=ORIENTED_EDGE('',*,*,#327,.T.);
#235=ORIENTED_EDGE('',*,*,#329,.F.);
#236=ORIENTED_EDGE('',*,*,#329,.T.);
#237=ORIENTED_EDGE('',*,*,#330,.F.);
#238=ORIENTED_EDGE('',*,*,#330,.T.);
#239=ORIENTED_EDGE('',*,*,#328,.F.);
#240=ORIENTED_EDGE('',*,*,#331,.F.);
#241=ORIENTED_EDGE('',*,*,#331,.T.);
#242=ORIENTED_EDGE('',*,*,#332,.F.);
#243=ORIENTED_EDGE('',*,*,#332,.T.);
#244=ORIENTED_EDGE('',*,*,#326,.F.);
#245=EDGE_CURVE('',#333,#334,#397,.T.);
#246=EDGE_CURVE('',#333,#335,#398,.T.);
#247=EDGE_CURVE('',#335,#336,#399,.T.);
#248=EDGE_CURVE('',#336,#334,#400,.T.);
#249=EDGE_CURVE('',#335,#337,#14,.T.);
#250=EDGE_CURVE('',#337,#338,#401,.T.);
#251=EDGE_CURVE('',#338,#339,#15,.T.);
#252=EDGE_CURVE('',#339,#340,#402,.T.);
#253=EDGE_CURVE('',#340,#336,#16,.F.);
#254=EDGE_CURVE('',#341,#342,#403,.T.);
#255=EDGE_CURVE('',#341,#343,#404,.T.);
#256=EDGE_CURVE('',#343,#344,#405,.T.);
#257=EDGE_CURVE('',#344,#342,#406,.T.);
#258=EDGE_CURVE('',#343,#345,#17,.T.);
#259=EDGE_CURVE('',#345,#346,#407,.T.);
#260=EDGE_CURVE('',#346,#347,#18,.T.);
#261=EDGE_CURVE('',#347,#348,#408,.T.);
#262=EDGE_CURVE('',#348,#344,#19,.F.);
#263=EDGE_CURVE('',#349,#350,#409,.T.);
#264=EDGE_CURVE('',#349,#351,#410,.T.);
#265=EDGE_CURVE('',#351,#352,#411,.T.);
#266=EDGE_CURVE('',#352,#350,#412,.T.);
#267=EDGE_CURVE('',#351,#353,#20,.T.);
#268=EDGE_CURVE('',#353,#354,#413,.T.);
#269=EDGE_CURVE('',#354,#355,#21,.T.);
#270=EDGE_CURVE('',#355,#356,#414,.T.);
#271=EDGE_CURVE('',#356,#352,#22,.F.);
#272=EDGE_CURVE('',#357,#358,#415,.T.);
#273=EDGE_CURVE('',#357,#359,#416,.T.);
#274=EDGE_CURVE('',#359,#360,#417,.T.);
#275=EDGE_CURVE('',#360,#358,#418,.T.);
#276=EDGE_CURVE('',#359,#361,#23,.T.);
#277=EDGE_CURVE('',#361,#362,#419,.T.);
#278=EDGE_CURVE('',#362,#363,#24,.T.);
#279=EDGE_CURVE('',#363,#364,#420,.T.);
#280=EDGE_CURVE('',#364,#360,#25,.F.);
#281=EDGE_CURVE('',#365,#365,#26,.T.);
#282=EDGE_CURVE('',#366,#366,#27,.T.);
#283=EDGE_CURVE('',#367,#342,#28,.T.);
#284=EDGE_CURVE('',#368,#367,#421,.T.);
#285=EDGE_CURVE('',#369,#368,#29,.T.);
#286=EDGE_CURVE('',#370,#369,#422,.T.);
#287=EDGE_CURVE('',#370,#341,#30,.T.);
#288=EDGE_CURVE('',#356,#367,#423,.T.);
#289=EDGE_CURVE('',#368,#355,#424,.T.);
#290=EDGE_CURVE('',#371,#350,#31,.T.);
#291=EDGE_CURVE('',#372,#371,#425,.T.);
#292=EDGE_CURVE('',#373,#372,#32,.T.);
#293=EDGE_CURVE('',#374,#373,#426,.T.);
#294=EDGE_CURVE('',#374,#349,#33,.T.);
#295=EDGE_CURVE('',#364,#371,#427,.T.);
#296=EDGE_CURVE('',#372,#363,#428,.T.);
#297=EDGE_CURVE('',#375,#358,#34,.T.);
#298=EDGE_CURVE('',#376,#375,#429,.T.);
#299=EDGE_CURVE('',#377,#376,#35,.T.);
#300=EDGE_CURVE('',#378,#377,#430,.T.);
#301=EDGE_CURVE('',#378,#357,#36,.T.);
#302=EDGE_CURVE('',#340,#375,#431,.T.);
#303=EDGE_CURVE('',#376,#339,#432,.T.);
#304=EDGE_CURVE('',#379,#334,#37,.T.);
#305=EDGE_CURVE('',#380,#379,#433,.T.);
#306=EDGE_CURVE('',#381,#380,#38,.T.);
#307=EDGE_CURVE('',#382,#381,#434,.T.);
#308=EDGE_CURVE('',#382,#333,#39,.T.);
#309=EDGE_CURVE('',#348,#379,#435,.T.);
#310=EDGE_CURVE('',#380,#347,#436,.T.);
#311=EDGE_CURVE('',#338,#381,#437,.T.);
#312=EDGE_CURVE('',#346,#369,#438,.T.);
#313=EDGE_CURVE('',#354,#373,#439,.T.);
#314=EDGE_CURVE('',#362,#377,#440,.T.);
#315=EDGE_CURVE('',#383,#383,#40,.F.);
#316=EDGE_CURVE('',#384,#384,#41,.F.);
#317=EDGE_CURVE('',#385,#385,#42,.T.);
#318=EDGE_CURVE('',#386,#386,#43,.T.);
#319=EDGE_CURVE('',#387,#387,#44,.T.);
#320=EDGE_CURVE('',#388,#388,#45,.T.);
#321=EDGE_CURVE('',#361,#378,#441,.T.);
#322=EDGE_CURVE('',#353,#374,#442,.T.);
#323=EDGE_CURVE('',#345,#370,#443,.T.);
#324=EDGE_CURVE('',#337,#382,#444,.T.);
#325=EDGE_CURVE('',#389,#389,#46,.T.);
#326=EDGE_CURVE('',#390,#390,#47,.T.);
#327=EDGE_CURVE('',#391,#391,#48,.T.);
#328=EDGE_CURVE('',#392,#392,#49,.T.);
#329=EDGE_CURVE('',#393,#393,#50,.T.);
#330=EDGE_CURVE('',#394,#394,#51,.T.);
#331=EDGE_CURVE('',#395,#395,#52,.T.);
#332=EDGE_CURVE('',#396,#396,#53,.T.);
#333=VERTEX_POINT('',#988);
#334=VERTEX_POINT('',#989);
#335=VERTEX_POINT('',#991);
#336=VERTEX_POINT('',#993);
#337=VERTEX_POINT('',#997);
#338=VERTEX_POINT('',#999);
#339=VERTEX_POINT('',#1001);
#340=VERTEX_POINT('',#1003);
#341=VERTEX_POINT('',#1007);
#342=VERTEX_POINT('',#1008);
#343=VERTEX_POINT('',#1010);
#344=VERTEX_POINT('',#1012);
#345=VERTEX_POINT('',#1016);
#346=VERTEX_POINT('',#1018);
#347=VERTEX_POINT('',#1020);
#348=VERTEX_POINT('',#1022);
#349=VERTEX_POINT('',#1026);
#350=VERTEX_POINT('',#1027);
#351=VERTEX_POINT('',#1029);
#352=VERTEX_POINT('',#1031);
#353=VERTEX_POINT('',#1035);
#354=VERTEX_POINT('',#1037);
#355=VERTEX_POINT('',#1039);
#356=VERTEX_POINT('',#1041);
#357=VERTEX_POINT('',#1045);
#358=VERTEX_POINT('',#1046);
#359=VERTEX_POINT('',#1048);
#360=VERTEX_POINT('',#1050);
#361=VERTEX_POINT('',#1054);
#362=VERTEX_POINT('',#1056);
#363=VERTEX_POINT('',#1058);
#364=VERTEX_POINT('',#1060);
#365=VERTEX_POINT('',#1064);
#366=VERTEX_POINT('',#1066);
#367=VERTEX_POINT('',#1070);
#368=VERTEX_POINT('',#1072);
#369=VERTEX_POINT('',#1074);
#370=VERTEX_POINT('',#1076);
#371=VERTEX_POINT('',#1083);
#372=VERTEX_POINT('',#1085);
#373=VERTEX_POINT('',#1087);
#374=VERTEX_POINT('',#1089);
#375=VERTEX_POINT('',#1096);
#376=VERTEX_POINT('',#1098);
#377=VERTEX_POINT('',#1100);
#378=VERTEX_POINT('',#1102);
#379=VERTEX_POINT('',#1109);
#380=VERTEX_POINT('',#1111);
#381=VERTEX_POINT('',#1113);
#382=VERTEX_POINT('',#1115);
#383=VERTEX_POINT('',#1127);
#384=VERTEX_POINT('',#1130);
#385=VERTEX_POINT('',#1132);
#386=VERTEX_POINT('',#1135);
#387=VERTEX_POINT('',#1139);
#388=VERTEX_POINT('',#1141);
#389=VERTEX_POINT('',#1156);
#390=VERTEX_POINT('',#1159);
#391=VERTEX_POINT('',#1162);
#392=VERTEX_POINT('',#1165);
#393=VERTEX_POINT('',#1168);
#394=VERTEX_POINT('',#1171);
#395=VERTEX_POINT('',#1175);
#396=VERTEX_POINT('',#1178);
#397=LINE('',#987,#445);
#398=LINE('',#990,#446);
#399=LINE('',#992,#447);
#400=LINE('',#994,#448);
#401=LINE('',#998,#449);
#402=LINE('',#1002,#450);
#403=LINE('',#1006,#451);
#404=LINE('',#1009,#452);
#405=LINE('',#1011,#453);
#406=LINE('',#1013,#454);
#407=LINE('',#1017,#455);
#408=LINE('',#1021,#456);
#409=LINE('',#1025,#457);
#410=LINE('',#1028,#458);
#411=LINE('',#1030,#459);
#412=LINE('',#1032,#460);
#413=LINE('',#1036,#461);
#414=LINE('',#1040,#462);
#415=LINE('',#1044,#463);
#416=LINE('',#1047,#464);
#417=LINE('',#1049,#465);
#418=LINE('',#1051,#466);
#419=LINE('',#1055,#467);
#420=LINE('',#1059,#468);
#421=LINE('',#1071,#469);
#422=LINE('',#1075,#470);
#423=LINE('',#1079,#471);
#424=LINE('',#1080,#472);
#425=LINE('',#1084,#473);
#426=LINE('',#1088,#474);
#427=LINE('',#1092,#475);
#428=LINE('',#1093,#476);
#429=LINE('',#1097,#477);
#430=LINE('',#1101,#478);
#431=LINE('',#1105,#479);
#432=LINE('',#1106,#480);
#433=LINE('',#1110,#481);
#434=LINE('',#1114,#482);
#435=LINE('',#1118,#483);
#436=LINE('',#1119,#484);
#437=LINE('',#1121,#485);
#438=LINE('',#1122,#486);
#439=LINE('',#1123,#487);
#440=LINE('',#1124,#488);
#441=LINE('',#1143,#489);
#442=LINE('',#1146,#490);
#443=LINE('',#1149,#491);
#444=LINE('',#1152,#492);
#445=VECTOR('',#775,1.);
#446=VECTOR('',#776,1.);
#447=VECTOR('',#777,1.);
#448=VECTOR('',#778,1.);
#449=VECTOR('',#783,1.);
#450=VECTOR('',#786,1.);
#451=VECTOR('',#791,1.);
#452=VECTOR('',#792,1.);
#453=VECTOR('',#793,1.);
#454=VECTOR('',#794,1.);
#455=VECTOR('',#799,1.);
#456=VECTOR('',#802,1.);
#457=VECTOR('',#807,1.);
#458=VECTOR('',#808,1.);
#459=VECTOR('',#809,1.);
#460=VECTOR('',#810,1.);
#461=VECTOR('',#815,1.);
#462=VECTOR('',#818,1.);
#463=VECTOR('',#823,1.);
#464=VECTOR('',#824,1.);
#465=VECTOR('',#825,1.);
#466=VECTOR('',#826,1.);
#467=VECTOR('',#831,1.);
#468=VECTOR('',#834,1.);
#469=VECTOR('',#849,1.);
#470=VECTOR('',#852,1.);
#471=VECTOR('',#857,1.);
#472=VECTOR('',#858,1.);
#473=VECTOR('',#863,1.);
#474=VECTOR('',#866,1.);
#475=VECTOR('',#871,1.);
#476=VECTOR('',#872,1.);
#477=VECTOR('',#877,1.);
#478=VECTOR('',#880,1.);
#479=VECTOR('',#885,1.);
#480=VECTOR('',#886,1.);
#481=VECTOR('',#891,1.);
#482=VECTOR('',#894,1.);
#483=VECTOR('',#899,1.);
#484=VECTOR('',#900,1.);
#485=VECTOR('',#903,1.);
#486=VECTOR('',#904,1.);
#487=VECTOR('',#905,1.);
#488=VECTOR('',#906,1.);
#489=VECTOR('',#931,1.);
#490=VECTOR('',#936,1.);
#491=VECTOR('',#941,1.);
#492=VECTOR('',#946,1.);
#493=EDGE_LOOP('',(#69,#70,#71,#72));
#494=EDGE_LOOP('',(#73,#74,#75,#76,#77,#78));
#495=EDGE_LOOP('',(#79,#80,#81,#82));
#496=EDGE_LOOP('',(#83,#84,#85,#86,#87,#88));
#497=EDGE_LOOP('',(#89,#90,#91,#92));
#498=EDGE_LOOP('',(#93,#94,#95,#96,#97,#98));
#499=EDGE_LOOP('',(#99,#100,#101,#102));
#500=EDGE_LOOP('',(#103,#104,#105,#106,#107,#108));
#501=EDGE_LOOP('',(#109));
#502=EDGE_LOOP('',(#110));
#503=EDGE_LOOP('',(#111));
#504=EDGE_LOOP('',(#112,#113,#114,#115,#116,#117));
#505=EDGE_LOOP('',(#118,#119,#120,#121));
#506=EDGE_LOOP('',(#122,#123,#124,#125,#126,#127));
#507=EDGE_LOOP('',(#128,#129,#130,#131));
#508=EDGE_LOOP('',(#132,#133,#134,#135,#136,#137));
#509=EDGE_LOOP('',(#138,#139,#140,#141));
#510=EDGE_LOOP('',(#142,#143,#144,#145,#146,#147));
#511=EDGE_LOOP('',(#148,#149,#150,#151));
#512=EDGE_LOOP('',(#152,#153,#154,#155,#156,#157,#158,#159,#160,#161,#162,
#163,#164,#165,#166,#167));
#513=EDGE_LOOP('',(#168));
#514=EDGE_LOOP('',(#169));
#515=EDGE_LOOP('',(#170,#171,#172,#173,#174,#175,#176,#177,#178,#179,#180,
#181,#182,#183,#184,#185));
#516=EDGE_LOOP('',(#186));
#517=EDGE_LOOP('',(#187));
#518=EDGE_LOOP('',(#188));
#519=EDGE_LOOP('',(#189));
#520=EDGE_LOOP('',(#190));
#521=EDGE_LOOP('',(#191));
#522=EDGE_LOOP('',(#192));
#523=EDGE_LOOP('',(#193));
#524=EDGE_LOOP('',(#194));
#525=EDGE_LOOP('',(#195,#196,#197,#198));
#526=EDGE_LOOP('',(#199,#200,#201,#202));
#527=EDGE_LOOP('',(#203,#204,#205,#206));
#528=EDGE_LOOP('',(#207,#208,#209,#210));
#529=EDGE_LOOP('',(#211,#212,#213,#214));
#530=EDGE_LOOP('',(#215,#216,#217,#218));
#531=EDGE_LOOP('',(#219,#220,#221,#222));
#532=EDGE_LOOP('',(#223,#224,#225,#226));
#533=EDGE_LOOP('',(#227));
#534=EDGE_LOOP('',(#228));
#535=EDGE_LOOP('',(#229));
#536=EDGE_LOOP('',(#230));
#537=EDGE_LOOP('',(#231));
#538=EDGE_LOOP('',(#232));
#539=EDGE_LOOP('',(#233));
#540=EDGE_LOOP('',(#234));
#541=EDGE_LOOP('',(#235));
#542=EDGE_LOOP('',(#236));
#543=EDGE_LOOP('',(#237));
#544=EDGE_LOOP('',(#238));
#545=EDGE_LOOP('',(#239));
#546=EDGE_LOOP('',(#240));
#547=EDGE_LOOP('',(#241));
#548=EDGE_LOOP('',(#242));
#549=EDGE_LOOP('',(#243));
#550=EDGE_LOOP('',(#244));
#551=FACE_BOUND('',#493,.T.);
#552=FACE_BOUND('',#494,.T.);
#553=FACE_BOUND('',#495,.T.);
#554=FACE_BOUND('',#496,.T.);
#555=FACE_BOUND('',#497,.T.);
#556=FACE_BOUND('',#498,.T.);
#557=FACE_BOUND('',#499,.T.);
#558=FACE_BOUND('',#500,.T.);
#559=FACE_BOUND('',#501,.T.);
#560=FACE_BOUND('',#502,.T.);
#561=FACE_BOUND('',#503,.T.);
#562=FACE_BOUND('',#504,.T.);
#563=FACE_BOUND('',#505,.T.);
#564=FACE_BOUND('',#506,.T.);
#565=FACE_BOUND('',#507,.T.);
#566=FACE_BOUND('',#508,.T.);
#567=FACE_BOUND('',#509,.T.);
#568=FACE_BOUND('',#510,.T.);
#569=FACE_BOUND('',#511,.T.);
#570=FACE_BOUND('',#512,.T.);
#571=FACE_BOUND('',#513,.T.);
#572=FACE_BOUND('',#514,.T.);
#573=FACE_BOUND('',#515,.T.);
#574=FACE_BOUND('',#516,.T.);
#575=FACE_BOUND('',#517,.T.);
#576=FACE_BOUND('',#518,.T.);
#577=FACE_BOUND('',#519,.T.);
#578=FACE_BOUND('',#520,.T.);
#579=FACE_BOUND('',#521,.T.);
#580=FACE_BOUND('',#522,.T.);
#581=FACE_BOUND('',#523,.T.);
#582=FACE_BOUND('',#524,.T.);
#583=FACE_BOUND('',#525,.T.);
#584=FACE_BOUND('',#526,.T.);
#585=FACE_BOUND('',#527,.T.);
#586=FACE_BOUND('',#528,.T.);
#587=FACE_BOUND('',#529,.T.);
#588=FACE_BOUND('',#530,.T.);
#589=FACE_BOUND('',#531,.T.);
#590=FACE_BOUND('',#532,.T.);
#591=FACE_BOUND('',#533,.T.);
#592=FACE_BOUND('',#534,.T.);
#593=FACE_BOUND('',#535,.T.);
#594=FACE_BOUND('',#536,.T.);
#595=FACE_BOUND('',#537,.T.);
#596=FACE_BOUND('',#538,.T.);
#597=FACE_BOUND('',#539,.T.);
#598=FACE_BOUND('',#540,.T.);
#599=FACE_BOUND('',#541,.T.);
#600=FACE_BOUND('',#542,.T.);
#601=FACE_BOUND('',#543,.T.);
#602=FACE_BOUND('',#544,.T.);
#603=FACE_BOUND('',#545,.T.);
#604=FACE_BOUND('',#546,.T.);
#605=FACE_BOUND('',#547,.T.);
#606=FACE_BOUND('',#548,.T.);
#607=FACE_BOUND('',#549,.T.);
#608=FACE_BOUND('',#550,.T.);
#609=PLANE('',#689);
#610=PLANE('',#694);
#611=PLANE('',#699);
#612=PLANE('',#704);
#613=PLANE('',#712);
#614=PLANE('',#717);
#615=PLANE('',#722);
#616=PLANE('',#727);
#617=PLANE('',#732);
#618=PLANE('',#733);
#619=PLANE('',#734);
#620=PLANE('',#741);
#621=PLANE('',#742);
#622=PLANE('',#745);
#623=PLANE('',#746);
#624=PLANE('',#747);
#625=PLANE('',#748);
#626=PLANE('',#749);
#627=PLANE('',#750);
#628=PLANE('',#751);
#629=PLANE('',#752);
#630=PLANE('',#755);
#631=PLANE('',#759);
#632=PLANE('',#761);
#633=PLANE('',#766);
#634=ADVANCED_FACE('',(#551),#609,.T.);
#635=ADVANCED_FACE('',(#552),#54,.F.);
#636=ADVANCED_FACE('',(#553),#610,.T.);
#637=ADVANCED_FACE('',(#554),#55,.F.);
#638=ADVANCED_FACE('',(#555),#611,.T.);
#639=ADVANCED_FACE('',(#556),#56,.F.);
#640=ADVANCED_FACE('',(#557),#612,.T.);
#641=ADVANCED_FACE('',(#558),#57,.F.);
#642=ADVANCED_FACE('',(#559,#560),#58,.T.);
#643=ADVANCED_FACE('',(#561),#613,.F.);
#644=ADVANCED_FACE('',(#562),#59,.F.);
#645=ADVANCED_FACE('',(#563),#614,.F.);
#646=ADVANCED_FACE('',(#564),#60,.F.);
#647=ADVANCED_FACE('',(#565),#615,.F.);
#648=ADVANCED_FACE('',(#566),#61,.F.);
#649=ADVANCED_FACE('',(#567),#616,.F.);
#650=ADVANCED_FACE('',(#568),#62,.F.);
#651=ADVANCED_FACE('',(#569),#617,.F.);
#652=ADVANCED_FACE('',(#570,#571),#618,.T.);
#653=ADVANCED_FACE('',(#572,#573),#619,.T.);
#654=ADVANCED_FACE('',(#574,#575),#63,.F.);
#655=ADVANCED_FACE('',(#576,#577),#64,.T.);
#656=ADVANCED_FACE('',(#578,#579),#620,.T.);
#657=ADVANCED_FACE('',(#580,#581,#582),#621,.T.);
#658=ADVANCED_FACE('',(#583),#622,.T.);
#659=ADVANCED_FACE('',(#584),#623,.F.);
#660=ADVANCED_FACE('',(#585),#624,.T.);
#661=ADVANCED_FACE('',(#586),#625,.F.);
#662=ADVANCED_FACE('',(#587),#626,.T.);
#663=ADVANCED_FACE('',(#588),#627,.F.);
#664=ADVANCED_FACE('',(#589),#628,.T.);
#665=ADVANCED_FACE('',(#590),#629,.F.);
#666=ADVANCED_FACE('',(#591,#592),#65,.T.);
#667=ADVANCED_FACE('',(#593,#594),#630,.T.);
#668=ADVANCED_FACE('',(#595,#596),#66,.T.);
#669=ADVANCED_FACE('',(#597,#598),#631,.T.);
#670=ADVANCED_FACE('',(#599),#632,.T.);
#671=ADVANCED_FACE('',(#600,#601),#67,.F.);
#672=ADVANCED_FACE('',(#602,#603),#12,.F.);
#673=ADVANCED_FACE('',(#604),#633,.T.);
#674=ADVANCED_FACE('',(#605,#606),#68,.F.);
#675=ADVANCED_FACE('',(#607,#608),#13,.F.);
#676=CLOSED_SHELL('',(#634,#635,#636,#637,#638,#639,#640,#641,#642,#643,
#644,#645,#646,#647,#648,#649,#650,#651,#652,#653,#654,#655,#656,#657,#658,
#659,#660,#661,#662,#663,#664,#665,#666,#667,#668,#669,#670,#671,#672,#673,
#674,#675));
#677=STYLED_ITEM('',(#678),#685);
#678=PRESENTATION_STYLE_ASSIGNMENT((#679));
#679=SURFACE_STYLE_USAGE(.BOTH.,#680);
#680=SURFACE_SIDE_STYLE('',(#681));
#681=SURFACE_STYLE_FILL_AREA(#682);
#682=FILL_AREA_STYLE('',(#683));
#683=FILL_AREA_STYLE_COLOUR('',#684);
#684=COLOUR_RGB('',0.301960784313725,0.290196078431373,0.262745098039216);
#685=MANIFOLD_SOLID_BREP('Base',#676);
#686=SHAPE_DEFINITION_REPRESENTATION(#1186,#687);
#687=SHAPE_REPRESENTATION('Base',(#688),#1181);
#688=AXIS2_PLACEMENT_3D('',#985,#771,#772);
#689=AXIS2_PLACEMENT_3D('',#986,#773,#774);
#690=AXIS2_PLACEMENT_3D('',#995,#779,#780);
#691=AXIS2_PLACEMENT_3D('',#996,#781,#782);
#692=AXIS2_PLACEMENT_3D('',#1000,#784,#785);
#693=AXIS2_PLACEMENT_3D('',#1004,#787,#788);
#694=AXIS2_PLACEMENT_3D('',#1005,#789,#790);
#695=AXIS2_PLACEMENT_3D('',#1014,#795,#796);
#696=AXIS2_PLACEMENT_3D('',#1015,#797,#798);
#697=AXIS2_PLACEMENT_3D('',#1019,#800,#801);
#698=AXIS2_PLACEMENT_3D('',#1023,#803,#804);
#699=AXIS2_PLACEMENT_3D('',#1024,#805,#806);
#700=AXIS2_PLACEMENT_3D('',#1033,#811,#812);
#701=AXIS2_PLACEMENT_3D('',#1034,#813,#814);
#702=AXIS2_PLACEMENT_3D('',#1038,#816,#817);
#703=AXIS2_PLACEMENT_3D('',#1042,#819,#820);
#704=AXIS2_PLACEMENT_3D('',#1043,#821,#822);
#705=AXIS2_PLACEMENT_3D('',#1052,#827,#828);
#706=AXIS2_PLACEMENT_3D('',#1053,#829,#830);
#707=AXIS2_PLACEMENT_3D('',#1057,#832,#833);
#708=AXIS2_PLACEMENT_3D('',#1061,#835,#836);
#709=AXIS2_PLACEMENT_3D('',#1062,#837,#838);
#710=AXIS2_PLACEMENT_3D('',#1063,#839,#840);
#711=AXIS2_PLACEMENT_3D('',#1065,#841,#842);
#712=AXIS2_PLACEMENT_3D('',#1067,#843,#844);
#713=AXIS2_PLACEMENT_3D('',#1068,#845,#846);
#714=AXIS2_PLACEMENT_3D('',#1069,#847,#848);
#715=AXIS2_PLACEMENT_3D('',#1073,#850,#851);
#716=AXIS2_PLACEMENT_3D('',#1077,#853,#854);
#717=AXIS2_PLACEMENT_3D('',#1078,#855,#856);
#718=AXIS2_PLACEMENT_3D('',#1081,#859,#860);
#719=AXIS2_PLACEMENT_3D('',#1082,#861,#862);
#720=AXIS2_PLACEMENT_3D('',#1086,#864,#865);
#721=AXIS2_PLACEMENT_3D('',#1090,#867,#868);
#722=AXIS2_PLACEMENT_3D('',#1091,#869,#870);
#723=AXIS2_PLACEMENT_3D('',#1094,#873,#874);
#724=AXIS2_PLACEMENT_3D('',#1095,#875,#876);
#725=AXIS2_PLACEMENT_3D('',#1099,#878,#879);
#726=AXIS2_PLACEMENT_3D('',#1103,#881,#882);
#727=AXIS2_PLACEMENT_3D('',#1104,#883,#884);
#728=AXIS2_PLACEMENT_3D('',#1107,#887,#888);
#729=AXIS2_PLACEMENT_3D('',#1108,#889,#890);
#730=AXIS2_PLACEMENT_3D('',#1112,#892,#893);
#731=AXIS2_PLACEMENT_3D('',#1116,#895,#896);
#732=AXIS2_PLACEMENT_3D('',#1117,#897,#898);
#733=AXIS2_PLACEMENT_3D('',#1120,#901,#902);
#734=AXIS2_PLACEMENT_3D('',#1125,#907,#908);
#735=AXIS2_PLACEMENT_3D('',#1126,#909,#910);
#736=AXIS2_PLACEMENT_3D('',#1128,#911,#912);
#737=AXIS2_PLACEMENT_3D('',#1129,#913,#914);
#738=AXIS2_PLACEMENT_3D('',#1131,#915,#916);
#739=AXIS2_PLACEMENT_3D('',#1133,#917,#918);
#740=AXIS2_PLACEMENT_3D('',#1134,#919,#920);
#741=AXIS2_PLACEMENT_3D('',#1136,#921,#922);
#742=AXIS2_PLACEMENT_3D('',#1137,#923,#924);
#743=AXIS2_PLACEMENT_3D('',#1138,#925,#926);
#744=AXIS2_PLACEMENT_3D('',#1140,#927,#928);
#745=AXIS2_PLACEMENT_3D('',#1142,#929,#930);
#746=AXIS2_PLACEMENT_3D('',#1144,#932,#933);
#747=AXIS2_PLACEMENT_3D('',#1145,#934,#935);
#748=AXIS2_PLACEMENT_3D('',#1147,#937,#938);
#749=AXIS2_PLACEMENT_3D('',#1148,#939,#940);
#750=AXIS2_PLACEMENT_3D('',#1150,#942,#943);
#751=AXIS2_PLACEMENT_3D('',#1151,#944,#945);
#752=AXIS2_PLACEMENT_3D('',#1153,#947,#948);
#753=AXIS2_PLACEMENT_3D('',#1154,#949,#950);
#754=AXIS2_PLACEMENT_3D('',#1155,#951,#952);
#755=AXIS2_PLACEMENT_3D('',#1157,#953,#954);
#756=AXIS2_PLACEMENT_3D('',#1158,#955,#956);
#757=AXIS2_PLACEMENT_3D('',#1160,#957,#958);
#758=AXIS2_PLACEMENT_3D('',#1161,#959,#960);
#759=AXIS2_PLACEMENT_3D('',#1163,#961,#962);
#760=AXIS2_PLACEMENT_3D('',#1164,#963,#964);
#761=AXIS2_PLACEMENT_3D('',#1166,#965,#966);
#762=AXIS2_PLACEMENT_3D('',#1167,#967,#968);
#763=AXIS2_PLACEMENT_3D('',#1169,#969,#970);
#764=AXIS2_PLACEMENT_3D('',#1170,#971,#972);
#765=AXIS2_PLACEMENT_3D('',#1172,#973,#974);
#766=AXIS2_PLACEMENT_3D('',#1173,#975,#976);
#767=AXIS2_PLACEMENT_3D('',#1174,#977,#978);
#768=AXIS2_PLACEMENT_3D('',#1176,#979,#980);
#769=AXIS2_PLACEMENT_3D('',#1177,#981,#982);
#770=AXIS2_PLACEMENT_3D('',#1179,#983,#984);
#771=DIRECTION('',(0.,0.,1.));
#772=DIRECTION('',(1.,0.,0.));
#773=DIRECTION('',(-0.0348994967025009,0.999390827019096,0.));
#774=DIRECTION('',(-0.999390827019096,-0.0348994967025009,0.));
#775=DIRECTION('',(0.,0.,-1.));
#776=DIRECTION('',(0.999390827019096,0.0348994967025011,0.));
#777=DIRECTION('',(0.,0.,-1.));
#778=DIRECTION('',(-0.999390827019096,-0.0348994967025009,0.));
#779=DIRECTION('',(0.,0.,-1.));
#780=DIRECTION('',(-1.,0.,0.));
#781=DIRECTION('',(0.,0.,1.));
#782=DIRECTION('',(-1.83697019872103E-16,-1.,0.));
#783=DIRECTION('',(0.,0.,1.));
#784=DIRECTION('',(0.,0.,1.));
#785=DIRECTION('',(1.,0.,0.));
#786=DIRECTION('',(0.,0.,-1.));
#787=DIRECTION('',(0.,0.,1.));
#788=DIRECTION('',(1.,0.,0.));
#789=DIRECTION('',(0.999390827019096,0.0348994967025009,0.));
#790=DIRECTION('',(-0.0348994967025009,0.999390827019096,0.));
#791=DIRECTION('',(0.,0.,-1.));
#792=DIRECTION('',(0.0348994967025011,-0.999390827019096,0.));
#793=DIRECTION('',(0.,0.,-1.));
#794=DIRECTION('',(-0.0348994967025009,0.999390827019096,0.));
#795=DIRECTION('',(0.,0.,-1.));
#796=DIRECTION('',(-1.,0.,0.));
#797=DIRECTION('',(0.,0.,1.));
#798=DIRECTION('',(-1.,1.22464679914735E-16,0.));
#799=DIRECTION('',(0.,0.,1.));
#800=DIRECTION('',(0.,0.,1.));
#801=DIRECTION('',(1.,0.,0.));
#802=DIRECTION('',(0.,0.,-1.));
#803=DIRECTION('',(0.,0.,1.));
#804=DIRECTION('',(1.,0.,0.));
#805=DIRECTION('',(0.0348994967025011,-0.999390827019096,0.));
#806=DIRECTION('',(0.999390827019096,0.0348994967025011,0.));
#807=DIRECTION('',(0.,0.,-1.));
#808=DIRECTION('',(-0.999390827019096,-0.0348994967025012,0.));
#809=DIRECTION('',(0.,0.,-1.));
#810=DIRECTION('',(0.999390827019096,0.0348994967025011,0.));
#811=DIRECTION('',(0.,0.,-1.));
#812=DIRECTION('',(-1.,0.,0.));
#813=DIRECTION('',(0.,0.,1.));
#814=DIRECTION('',(6.12323399573677E-17,1.,0.));
#815=DIRECTION('',(0.,0.,1.));
#816=DIRECTION('',(0.,0.,1.));
#817=DIRECTION('',(1.,0.,0.));
#818=DIRECTION('',(0.,0.,-1.));
#819=DIRECTION('',(0.,0.,1.));
#820=DIRECTION('',(1.,0.,0.));
#821=DIRECTION('',(-0.999390827019096,-0.0348994967025012,0.));
#822=DIRECTION('',(0.0348994967025012,-0.999390827019096,0.));
#823=DIRECTION('',(0.,0.,-1.));
#824=DIRECTION('',(-0.0348994967025012,0.999390827019096,0.));
#825=DIRECTION('',(0.,0.,-1.));
#826=DIRECTION('',(0.0348994967025012,-0.999390827019096,0.));
#827=DIRECTION('',(0.,0.,-1.));
#828=DIRECTION('',(-1.,0.,0.));
#829=DIRECTION('',(0.,0.,1.));
#830=DIRECTION('',(1.,0.,0.));
#831=DIRECTION('',(0.,0.,1.));
#832=DIRECTION('',(0.,0.,1.));
#833=DIRECTION('',(1.,0.,0.));
#834=DIRECTION('',(0.,0.,-1.));
#835=DIRECTION('',(0.,0.,1.));
#836=DIRECTION('',(1.,0.,0.));
#837=DIRECTION('',(0.,0.,-1.));
#838=DIRECTION('',(-1.,0.,0.));
#839=DIRECTION('',(0.,0.,1.));
#840=DIRECTION('',(1.,0.,0.));
#841=DIRECTION('',(0.,0.,1.));
#842=DIRECTION('',(1.,0.,0.));
#843=DIRECTION('',(0.,0.,1.));
#844=DIRECTION('',(1.,0.,0.));
#845=DIRECTION('',(0.,0.,-1.));
#846=DIRECTION('',(-1.,0.,0.));
#847=DIRECTION('',(0.,0.,1.));
#848=DIRECTION('',(1.,0.,0.));
#849=DIRECTION('',(0.,0.,-1.));
#850=DIRECTION('',(0.,0.,-1.));
#851=DIRECTION('',(1.,0.,0.));
#852=DIRECTION('',(0.,0.,1.));
#853=DIRECTION('',(0.,0.,-1.));
#854=DIRECTION('',(-1.,1.22464679914735E-16,0.));
#855=DIRECTION('',(0.999390827019096,-0.0348994967025009,0.));
#856=DIRECTION('',(0.0348994967025009,0.999390827019096,0.));
#857=DIRECTION('',(0.0348994967025009,0.999390827019096,0.));
#858=DIRECTION('',(-0.0348994967025009,-0.999390827019096,0.));
#859=DIRECTION('',(0.,0.,-1.));
#860=DIRECTION('',(-1.,0.,0.));
#861=DIRECTION('',(0.,0.,1.));
#862=DIRECTION('',(1.,0.,0.));
#863=DIRECTION('',(0.,0.,-1.));
#864=DIRECTION('',(0.,0.,-1.));
#865=DIRECTION('',(1.,0.,0.));
#866=DIRECTION('',(0.,0.,1.));
#867=DIRECTION('',(0.,0.,-1.));
#868=DIRECTION('',(6.12323399573677E-17,1.,0.));
#869=DIRECTION('',(-0.0348994967025009,-0.999390827019096,0.));
#870=DIRECTION('',(0.999390827019096,-0.0348994967025009,0.));
#871=DIRECTION('',(0.999390827019096,-0.0348994967025009,0.));
#872=DIRECTION('',(-0.999390827019096,0.0348994967025009,0.));
#873=DIRECTION('',(0.,0.,-1.));
#874=DIRECTION('',(-1.,0.,0.));
#875=DIRECTION('',(0.,0.,1.));
#876=DIRECTION('',(1.,0.,0.));
#877=DIRECTION('',(0.,0.,-1.));
#878=DIRECTION('',(0.,0.,-1.));
#879=DIRECTION('',(1.,0.,0.));
#880=DIRECTION('',(0.,0.,1.));
#881=DIRECTION('',(0.,0.,-1.));
#882=DIRECTION('',(1.,0.,0.));
#883=DIRECTION('',(-0.999390827019096,0.0348994967025008,0.));
#884=DIRECTION('',(-0.0348994967025008,-0.999390827019096,0.));
#885=DIRECTION('',(-0.0348994967025008,-0.999390827019096,0.));
#886=DIRECTION('',(0.0348994967025008,0.999390827019096,0.));
#887=DIRECTION('',(0.,0.,-1.));
#888=DIRECTION('',(-1.,0.,0.));
#889=DIRECTION('',(0.,0.,1.));
#890=DIRECTION('',(1.,0.,0.));
#891=DIRECTION('',(0.,0.,-1.));
#892=DIRECTION('',(0.,0.,-1.));
#893=DIRECTION('',(1.,0.,0.));
#894=DIRECTION('',(0.,0.,1.));
#895=DIRECTION('',(0.,0.,-1.));
#896=DIRECTION('',(-1.83697019872103E-16,-1.,0.));
#897=DIRECTION('',(0.0348994967025011,0.999390827019096,0.));
#898=DIRECTION('',(-0.999390827019096,0.0348994967025011,0.));
#899=DIRECTION('',(-0.999390827019096,0.0348994967025011,0.));
#900=DIRECTION('',(0.999390827019096,-0.0348994967025011,0.));
#901=DIRECTION('',(0.,0.,1.));
#902=DIRECTION('',(1.,0.,0.));
#903=DIRECTION('',(-0.707106781186547,-0.707106781186548,0.));
#904=DIRECTION('',(-0.707106781186548,0.707106781186547,0.));
#905=DIRECTION('',(0.707106781186547,0.707106781186549,0.));
#906=DIRECTION('',(0.707106781186549,-0.707106781186547,0.));
#907=DIRECTION('',(0.,0.,1.));
#908=DIRECTION('',(1.,0.,0.));
#909=DIRECTION('',(0.,0.,1.));
#910=DIRECTION('',(1.,0.,0.));
#911=DIRECTION('',(0.,0.,-1.));
#912=DIRECTION('',(-1.,0.,0.));
#913=DIRECTION('',(0.,0.,1.));
#914=DIRECTION('',(1.,0.,0.));
#915=DIRECTION('',(0.,0.,1.));
#916=DIRECTION('',(1.,0.,0.));
#917=DIRECTION('',(0.,0.,-1.));
#918=DIRECTION('',(-1.,0.,0.));
#919=DIRECTION('',(0.,0.,1.));
#920=DIRECTION('',(1.,0.,0.));
#921=DIRECTION('',(0.,0.,1.));
#922=DIRECTION('',(1.,0.,0.));
#923=DIRECTION('',(0.,0.,1.));
#924=DIRECTION('',(1.,0.,0.));
#925=DIRECTION('',(0.,0.,1.));
#926=DIRECTION('',(1.,0.,0.));
#927=DIRECTION('',(0.,0.,1.));
#928=DIRECTION('',(1.,0.,0.));
#929=DIRECTION('',(-0.707106781186547,-0.707106781186549,0.));
#930=DIRECTION('',(0.707106781186549,-0.707106781186547,0.));
#931=DIRECTION('',(0.707106781186549,-0.707106781186547,0.));
#932=DIRECTION('',(0.,0.,1.));
#933=DIRECTION('',(1.,0.,0.));
#934=DIRECTION('',(0.707106781186549,-0.707106781186547,0.));
#935=DIRECTION('',(0.707106781186547,0.707106781186549,0.));
#936=DIRECTION('',(0.707106781186547,0.707106781186549,0.));
#937=DIRECTION('',(0.,0.,1.));
#938=DIRECTION('',(6.12323399573677E-17,1.,0.));
#939=DIRECTION('',(0.707106781186547,0.707106781186548,0.));
#940=DIRECTION('',(-0.707106781186548,0.707106781186547,0.));
#941=DIRECTION('',(-0.707106781186548,0.707106781186547,0.));
#942=DIRECTION('',(0.,0.,1.));
#943=DIRECTION('',(-1.,1.22464679914735E-16,0.));
#944=DIRECTION('',(-0.707106781186548,0.707106781186547,0.));
#945=DIRECTION('',(-0.707106781186547,-0.707106781186548,0.));
#946=DIRECTION('',(-0.707106781186547,-0.707106781186548,0.));
#947=DIRECTION('',(0.,0.,1.));
#948=DIRECTION('',(-1.83697019872103E-16,-1.,0.));
#949=DIRECTION('',(0.,0.,-1.));
#950=DIRECTION('',(-1.,0.,0.));
#951=DIRECTION('',(0.,0.,1.));
#952=DIRECTION('',(1.,0.,0.));
#953=DIRECTION('',(0.,0.,1.));
#954=DIRECTION('',(1.,0.,0.));
#955=DIRECTION('',(0.,0.,-1.));
#956=DIRECTION('',(-1.,0.,0.));
#957=DIRECTION('',(0.,0.,-1.));
#958=DIRECTION('',(-1.,0.,0.));
#959=DIRECTION('',(0.,0.,1.));
#960=DIRECTION('',(1.,0.,0.));
#961=DIRECTION('',(0.,0.,1.));
#962=DIRECTION('',(1.,0.,0.));
#963=DIRECTION('',(0.,0.,-1.));
#964=DIRECTION('',(-1.,0.,0.));
#965=DIRECTION('',(0.,0.,1.));
#966=DIRECTION('',(1.,0.,0.));
#967=DIRECTION('',(0.,0.,-1.));
#968=DIRECTION('',(-1.,0.,0.));
#969=DIRECTION('',(0.,0.,-1.));
#970=DIRECTION('',(-1.,0.,0.));
#971=DIRECTION('',(0.,0.,-1.));
#972=DIRECTION('',(-1.,0.,0.));
#973=DIRECTION('',(0.,0.,1.));
#974=DIRECTION('',(1.,0.,0.));
#975=DIRECTION('',(0.,0.,1.));
#976=DIRECTION('',(1.,0.,0.));
#977=DIRECTION('',(0.,0.,-1.));
#978=DIRECTION('',(-1.,0.,0.));
#979=DIRECTION('',(0.,0.,-1.));
#980=DIRECTION('',(-1.,0.,0.));
#981=DIRECTION('',(0.,0.,-1.));
#982=DIRECTION('',(-1.,0.,0.));
#983=DIRECTION('',(0.,0.,1.));
#984=DIRECTION('',(1.,0.,0.));
#985=CARTESIAN_POINT('',(0.,0.,0.));
#986=CARTESIAN_POINT('',(0.036477765186197,0.00127383162964129,0.01));
#987=CARTESIAN_POINT('',(0.0354783743591779,0.00123893213293878,0.01));
#988=CARTESIAN_POINT('',(0.0354783743591779,0.00123893213293878,0.008));
#989=CARTESIAN_POINT('',(0.0354783743591779,0.00123893213293878,0.002));
#990=CARTESIAN_POINT('',(0.036477765186197,0.00127383162964129,0.008));
#991=CARTESIAN_POINT('',(0.0374771560132161,0.0013087311263438,0.008));
#992=CARTESIAN_POINT('',(0.0374771560132161,0.0013087311263438,0.01));
#993=CARTESIAN_POINT('',(0.0374771560132161,0.0013087311263438,0.002));
#994=CARTESIAN_POINT('',(-1.36217196516608E-19,3.90075014093828E-18,0.002));
#995=CARTESIAN_POINT('',(-3.90312782094781E-18,9.21571846612679E-18,0.01));
#996=CARTESIAN_POINT('',(3.25260651745648E-19,-1.6154612370034E-17,0.008));
#997=CARTESIAN_POINT('',(0.0265165042944955,0.0265165042944955,0.008));
#998=CARTESIAN_POINT('',(0.0265165042944955,0.0265165042944955,0.008));
#999=CARTESIAN_POINT('',(0.0265165042944955,0.0265165042944955,0.01));
#1000=CARTESIAN_POINT('',(-3.90312782094781E-18,9.21571846612679E-18,0.01));
#1001=CARTESIAN_POINT('',(0.00130873112634377,0.0374771560132161,0.01));
#1002=CARTESIAN_POINT('',(0.00130873112634377,0.0374771560132161,0.01));
#1003=CARTESIAN_POINT('',(0.00130873112634377,0.0374771560132161,0.002));
#1004=CARTESIAN_POINT('',(-3.90312782094781E-18,9.21571846612679E-18,0.002));
#1005=CARTESIAN_POINT('',(0.00127383162964129,-0.036477765186197,0.01));
#1006=CARTESIAN_POINT('',(0.00123893213293879,-0.0354783743591779,0.01));
#1007=CARTESIAN_POINT('',(0.00123893213293879,-0.0354783743591779,0.008));
#1008=CARTESIAN_POINT('',(0.00123893213293879,-0.0354783743591779,0.002));
#1009=CARTESIAN_POINT('',(0.00127383162964129,-0.036477765186197,0.008));
#1010=CARTESIAN_POINT('',(0.00130873112634379,-0.0374771560132161,0.008));
#1011=CARTESIAN_POINT('',(0.00130873112634379,-0.0374771560132161,0.01));
#1012=CARTESIAN_POINT('',(0.00130873112634379,-0.0374771560132161,0.002));
#1013=CARTESIAN_POINT('',(5.63441687024418E-18,1.96758172746212E-19,0.002));
#1014=CARTESIAN_POINT('',(4.98732999343332E-18,6.07153216591882E-18,0.01));
#1015=CARTESIAN_POINT('',(-1.6154612370034E-17,-3.2526065174565E-19,0.008));
#1016=CARTESIAN_POINT('',(0.0265165042944955,-0.0265165042944955,0.008));
#1017=CARTESIAN_POINT('',(0.0265165042944955,-0.0265165042944955,0.008));
#1018=CARTESIAN_POINT('',(0.0265165042944955,-0.0265165042944955,0.01));
#1019=CARTESIAN_POINT('',(4.98732999343332E-18,6.07153216591882E-18,0.01));
#1020=CARTESIAN_POINT('',(0.0374771560132161,-0.00130873112634379,0.01));
#1021=CARTESIAN_POINT('',(0.0374771560132161,-0.00130873112634379,0.01));
#1022=CARTESIAN_POINT('',(0.0374771560132161,-0.00130873112634379,0.002));
#1023=CARTESIAN_POINT('',(4.98732999343332E-18,6.07153216591882E-18,0.002));
#1024=CARTESIAN_POINT('',(-0.036477765186197,-0.00127383162964129,0.01));
#1025=CARTESIAN_POINT('',(-0.0354783743591779,-0.00123893213293879,0.01));
#1026=CARTESIAN_POINT('',(-0.0354783743591779,-0.00123893213293879,0.008));
#1027=CARTESIAN_POINT('',(-0.0354783743591779,-0.00123893213293879,0.002));
#1028=CARTESIAN_POINT('',(-0.036477765186197,-0.00127383162964129,0.008));
#1029=CARTESIAN_POINT('',(-0.0374771560132161,-0.0013087311263438,0.008));
#1030=CARTESIAN_POINT('',(-0.0374771560132161,-0.0013087311263438,0.01));
#1031=CARTESIAN_POINT('',(-0.0374771560132161,-0.0013087311263438,0.002));
#1032=CARTESIAN_POINT('',(0.,0.,0.002));
#1033=CARTESIAN_POINT('',(-2.27682456221956E-18,-1.32272665043232E-17,0.01));
#1034=CARTESIAN_POINT('',(-3.25260651745651E-19,1.6154612370034E-17,0.008));
#1035=CARTESIAN_POINT('',(-0.0265165042944955,-0.0265165042944955,0.008));
#1036=CARTESIAN_POINT('',(-0.0265165042944955,-0.0265165042944955,0.008));
#1037=CARTESIAN_POINT('',(-0.0265165042944955,-0.0265165042944955,0.01));
#1038=CARTESIAN_POINT('',(-2.27682456221956E-18,-1.32272665043232E-17,0.01));
#1039=CARTESIAN_POINT('',(-0.00130873112634378,-0.0374771560132161,0.01));
#1040=CARTESIAN_POINT('',(-0.00130873112634378,-0.0374771560132161,0.01));
#1041=CARTESIAN_POINT('',(-0.00130873112634378,-0.0374771560132161,0.002));
#1042=CARTESIAN_POINT('',(-2.27682456221956E-18,-1.32272665043232E-17,0.002));
#1043=CARTESIAN_POINT('',(-0.00127383162964129,0.036477765186197,0.01));
#1044=CARTESIAN_POINT('',(-0.00123893213293879,0.0354783743591779,0.01));
#1045=CARTESIAN_POINT('',(-0.00123893213293879,0.0354783743591779,0.008));
#1046=CARTESIAN_POINT('',(-0.00123893213293879,0.0354783743591779,0.002));
#1047=CARTESIAN_POINT('',(-0.00127383162964129,0.036477765186197,0.008));
#1048=CARTESIAN_POINT('',(-0.00130873112634379,0.0374771560132161,0.008));
#1049=CARTESIAN_POINT('',(-0.00130873112634379,0.0374771560132161,0.01));
#1050=CARTESIAN_POINT('',(-0.00130873112634379,0.0374771560132161,0.002));
#1051=CARTESIAN_POINT('',(4.11745848210151E-18,1.4378481854531E-19,0.002));
#1052=CARTESIAN_POINT('',(1.6154612370034E-17,3.25260651745652E-19,0.01));
#1053=CARTESIAN_POINT('',(1.6154612370034E-17,3.25260651745652E-19,0.008));
#1054=CARTESIAN_POINT('',(-0.0265165042944955,0.0265165042944955,0.008));
#1055=CARTESIAN_POINT('',(-0.0265165042944955,0.0265165042944955,0.008));
#1056=CARTESIAN_POINT('',(-0.0265165042944955,0.0265165042944955,0.01));
#1057=CARTESIAN_POINT('',(1.6154612370034E-17,3.25260651745652E-19,0.01));
#1058=CARTESIAN_POINT('',(-0.0374771560132161,0.00130873112634378,0.01));
#1059=CARTESIAN_POINT('',(-0.0374771560132161,0.00130873112634378,0.01));
#1060=CARTESIAN_POINT('',(-0.0374771560132161,0.00130873112634378,0.002));
#1061=CARTESIAN_POINT('',(1.6154612370034E-17,3.25260651745652E-19,0.002));
#1062=CARTESIAN_POINT('',(0.,2.41867742831602E-18,0.002));
#1063=CARTESIAN_POINT('',(0.,2.41867742831602E-18,0.));
#1064=CARTESIAN_POINT('',(0.0395,2.41867742831602E-18,0.));
#1065=CARTESIAN_POINT('',(0.,2.41867742831602E-18,0.01));
#1066=CARTESIAN_POINT('',(0.0395,2.41867742831602E-18,0.01));
#1067=CARTESIAN_POINT('',(0.,0.,0.));
#1068=CARTESIAN_POINT('',(6.83047368665868E-18,2.64371857738866E-15,0.01));
#1069=CARTESIAN_POINT('',(6.83047368665868E-18,2.64371857738866E-15,0.002));
#1070=CARTESIAN_POINT('',(-0.00123893213293878,-0.0354783743591779,0.002));
#1071=CARTESIAN_POINT('',(-0.00123893213293878,-0.0354783743591779,0.01));
#1072=CARTESIAN_POINT('',(-0.00123893213293878,-0.0354783743591779,0.01));
#1073=CARTESIAN_POINT('',(6.83047368665868E-18,2.64371857738866E-15,0.01));
#1074=CARTESIAN_POINT('',(0.0251022907321208,-0.0251022907321208,0.01));
#1075=CARTESIAN_POINT('',(0.0251022907321208,-0.0251022907321208,0.008));
#1076=CARTESIAN_POINT('',(0.0251022907321208,-0.0251022907321208,0.008));
#1077=CARTESIAN_POINT('',(1.17093834628434E-17,-3.46944695195361E-18,0.008));
#1078=CARTESIAN_POINT('',(-0.00127383162964129,-0.036477765186197,0.01));
#1079=CARTESIAN_POINT('',(-4.33416682326475E-19,1.51352440574009E-20,0.002));
#1080=CARTESIAN_POINT('',(-0.00127383162964129,-0.036477765186197,0.01));
#1081=CARTESIAN_POINT('',(2.67147415300428E-15,-2.49366499671666E-18,0.01));
#1082=CARTESIAN_POINT('',(2.67147415300428E-15,-2.49366499671666E-18,0.002));
#1083=CARTESIAN_POINT('',(-0.0354783743591779,0.00123893213293878,0.002));
#1084=CARTESIAN_POINT('',(-0.0354783743591779,0.00123893213293878,0.01));
#1085=CARTESIAN_POINT('',(-0.0354783743591779,0.00123893213293878,0.01));
#1086=CARTESIAN_POINT('',(2.67147415300428E-15,-2.49366499671666E-18,0.01));
#1087=CARTESIAN_POINT('',(-0.0251022907321208,-0.0251022907321208,0.01));
#1088=CARTESIAN_POINT('',(-0.0251022907321208,-0.0251022907321208,0.008));
#1089=CARTESIAN_POINT('',(-0.0251022907321208,-0.0251022907321208,0.008));
#1090=CARTESIAN_POINT('',(-3.46944695195361E-18,-1.17093834628434E-17,0.008));
#1091=CARTESIAN_POINT('',(-0.036477765186197,0.00127383162964128,0.01));
#1092=CARTESIAN_POINT('',(1.51352440574009E-20,4.33416682326475E-19,0.002));
#1093=CARTESIAN_POINT('',(-0.036477765186197,0.00127383162964128,0.01));
#1094=CARTESIAN_POINT('',(-5.52943107967607E-18,-2.70616862252382E-15,0.01));
#1095=CARTESIAN_POINT('',(-5.52943107967607E-18,-2.70616862252382E-15,0.002));
#1096=CARTESIAN_POINT('',(0.00123893213293878,0.0354783743591779,0.002));
#1097=CARTESIAN_POINT('',(0.00123893213293878,0.0354783743591779,0.01));
#1098=CARTESIAN_POINT('',(0.00123893213293878,0.0354783743591779,0.01));
#1099=CARTESIAN_POINT('',(-5.52943107967607E-18,-2.70616862252382E-15,0.01));
#1100=CARTESIAN_POINT('',(-0.0251022907321208,0.0251022907321208,0.01));
#1101=CARTESIAN_POINT('',(-0.0251022907321208,0.0251022907321208,0.008));
#1102=CARTESIAN_POINT('',(-0.0251022907321208,0.0251022907321208,0.008));
#1103=CARTESIAN_POINT('',(-1.17093834628434E-17,3.46944695195361E-18,0.008));
#1104=CARTESIAN_POINT('',(0.00127383162964128,0.036477765186197,0.01));
#1105=CARTESIAN_POINT('',(-1.51695838814266E-18,5.29733542009029E-20,0.002));
#1106=CARTESIAN_POINT('',(0.00127383162964128,0.036477765186197,0.01));
#1107=CARTESIAN_POINT('',(-2.66453525910038E-15,-4.98732999343332E-18,0.01));
#1108=CARTESIAN_POINT('',(-2.66453525910038E-15,-4.98732999343332E-18,0.002));
#1109=CARTESIAN_POINT('',(0.0354783743591779,-0.00123893213293879,0.002));
#1110=CARTESIAN_POINT('',(0.0354783743591779,-0.00123893213293879,0.01));
#1111=CARTESIAN_POINT('',(0.0354783743591779,-0.00123893213293879,0.01));
#1112=CARTESIAN_POINT('',(-2.66453525910038E-15,-4.98732999343332E-18,0.01));
#1113=CARTESIAN_POINT('',(0.0251022907321208,0.0251022907321208,0.01));
#1114=CARTESIAN_POINT('',(0.0251022907321208,0.0251022907321208,0.008));
#1115=CARTESIAN_POINT('',(0.0251022907321208,0.0251022907321208,0.008));
#1116=CARTESIAN_POINT('',(3.46944695195361E-18,1.17093834628434E-17,0.008));
#1117=CARTESIAN_POINT('',(0.036477765186197,-0.00127383162964129,0.01));
#1118=CARTESIAN_POINT('',(-7.56762202870048E-21,-2.16708341163237E-19,0.002));
#1119=CARTESIAN_POINT('',(0.036477765186197,-0.00127383162964129,0.01));
#1120=CARTESIAN_POINT('',(0.,0.,0.01));
#1121=CARTESIAN_POINT('',(0.0258093975133082,0.0258093975133082,0.01));
#1122=CARTESIAN_POINT('',(0.0258093975133082,-0.0258093975133082,0.01));
#1123=CARTESIAN_POINT('',(-0.0258093975133082,-0.0258093975133082,0.01));
#1124=CARTESIAN_POINT('',(-0.0258093975133082,0.0258093975133082,0.01));
#1125=CARTESIAN_POINT('',(0.,0.,0.002));
#1126=CARTESIAN_POINT('',(-6.17995238316738E-18,-2.77555756156289E-15,0.002));
#1127=CARTESIAN_POINT('',(0.0334999999999972,-2.77555756156289E-15,0.002));
#1128=CARTESIAN_POINT('',(0.,1.92881870865708E-18,0.01));
#1129=CARTESIAN_POINT('',(0.,1.92881870865708E-18,0.002));
#1130=CARTESIAN_POINT('',(0.0315,1.92881870865708E-18,0.002));
#1131=CARTESIAN_POINT('',(0.,1.92881870865708E-18,0.01));
#1132=CARTESIAN_POINT('',(0.0315,1.92881870865708E-18,0.01));
#1133=CARTESIAN_POINT('',(-6.17995238316738E-18,-2.77555756156289E-15,0.01));
#1134=CARTESIAN_POINT('',(-6.17995238316738E-18,-2.77555756156289E-15,0.01));
#1135=CARTESIAN_POINT('',(0.0334999999999972,-2.77555756156289E-15,0.01));
#1136=CARTESIAN_POINT('',(0.,0.,0.01));
#1137=CARTESIAN_POINT('',(0.,0.,0.002));
#1138=CARTESIAN_POINT('',(-0.004167,-0.0218,0.002));
#1139=CARTESIAN_POINT('',(-0.000667,-0.0218,0.002));
#1140=CARTESIAN_POINT('',(0.018,0.00017,0.002));
#1141=CARTESIAN_POINT('',(0.0215,0.00017,0.002));
#1142=CARTESIAN_POINT('',(-0.0258093975133082,0.0258093975133082,0.008));
#1143=CARTESIAN_POINT('',(-0.0258093975133082,0.0258093975133082,0.008));
#1144=CARTESIAN_POINT('',(0.,0.,0.008));
#1145=CARTESIAN_POINT('',(-0.0258093975133082,-0.0258093975133082,0.008));
#1146=CARTESIAN_POINT('',(-0.0258093975133082,-0.0258093975133082,0.008));
#1147=CARTESIAN_POINT('',(0.,0.,0.008));
#1148=CARTESIAN_POINT('',(0.0258093975133082,-0.0258093975133082,0.008));
#1149=CARTESIAN_POINT('',(0.0258093975133082,-0.0258093975133082,0.008));
#1150=CARTESIAN_POINT('',(0.,0.,0.008));
#1151=CARTESIAN_POINT('',(0.0258093975133082,0.0258093975133082,0.008));
#1152=CARTESIAN_POINT('',(0.0258093975133082,0.0258093975133082,0.008));
#1153=CARTESIAN_POINT('',(0.,0.,0.008));
#1154=CARTESIAN_POINT('',(0.018,0.00017,0.006));
#1155=CARTESIAN_POINT('',(0.018,0.00017,0.006));
#1156=CARTESIAN_POINT('',(0.0215,0.00017,0.006));
#1157=CARTESIAN_POINT('',(0.,0.,0.006));
#1158=CARTESIAN_POINT('',(0.018,0.00017,0.006));
#1159=CARTESIAN_POINT('',(0.0155,0.00017,0.006));
#1160=CARTESIAN_POINT('',(-0.004167,-0.0218,0.006));
#1161=CARTESIAN_POINT('',(-0.004167,-0.0218,0.006));
#1162=CARTESIAN_POINT('',(-0.000667,-0.0218,0.006));
#1163=CARTESIAN_POINT('',(0.,0.,0.006));
#1164=CARTESIAN_POINT('',(-0.004167,-0.0218,0.006));
#1165=CARTESIAN_POINT('',(-0.006667,-0.0218,0.006));
#1166=CARTESIAN_POINT('',(-0.002167,-0.0218,0.002));
#1167=CARTESIAN_POINT('',(-0.004167,-0.0218,0.002));
#1168=CARTESIAN_POINT('',(-0.006167,-0.0218,0.002));
#1169=CARTESIAN_POINT('',(-0.004167,-0.0218,0.006));
#1170=CARTESIAN_POINT('',(-0.004167,-0.0218,0.0055));
#1171=CARTESIAN_POINT('',(-0.006167,-0.0218,0.0055));
#1172=CARTESIAN_POINT('',(-0.004167,-0.0218,0.006));
#1173=CARTESIAN_POINT('',(0.02,0.00017,0.002));
#1174=CARTESIAN_POINT('',(0.018,0.00017,0.002));
#1175=CARTESIAN_POINT('',(0.016,0.00017,0.002));
#1176=CARTESIAN_POINT('',(0.018,0.00017,0.006));
#1177=CARTESIAN_POINT('',(0.018,0.00017,0.0055));
#1178=CARTESIAN_POINT('',(0.016,0.00017,0.0055));
#1179=CARTESIAN_POINT('',(0.018,0.00017,0.006));
#1180=MECHANICAL_DESIGN_GEOMETRIC_PRESENTATION_REPRESENTATION('',(#677),
#1181);
#1181=(
GEOMETRIC_REPRESENTATION_CONTEXT(3)
GLOBAL_UNCERTAINTY_ASSIGNED_CONTEXT((#1182))
GLOBAL_UNIT_ASSIGNED_CONTEXT((#1185,#1184,#1183))
REPRESENTATION_CONTEXT('Base','TOP_LEVEL_ASSEMBLY_PART')
);
#1182=UNCERTAINTY_MEASURE_WITH_UNIT(LENGTH_MEASURE(1.E-8),#1185,
'DISTANCE_ACCURACY_VALUE','Maximum Tolerance applied to model');
#1183=(
NAMED_UNIT(*)
SI_UNIT($,.STERADIAN.)
SOLID_ANGLE_UNIT()
);
#1184=(
NAMED_UNIT(*)
PLANE_ANGLE_UNIT()
SI_UNIT($,.RADIAN.)
);
#1185=(
LENGTH_UNIT()
NAMED_UNIT(*)
SI_UNIT($,.METRE.)
);
#1186=PRODUCT_DEFINITION_SHAPE('','',#1187);
#1187=PRODUCT_DEFINITION('','',#1189,#1188);
#1188=PRODUCT_DEFINITION_CONTEXT('',#1195,'design');
#1189=PRODUCT_DEFINITION_FORMATION_WITH_SPECIFIED_SOURCE('','',#1191,
 .NOT_KNOWN.);
#1190=PRODUCT_RELATED_PRODUCT_CATEGORY('','',(#1191));
#1191=PRODUCT('Base','Base','Base',(#1193));
#1192=PRODUCT_CATEGORY('','');
#1193=PRODUCT_CONTEXT('',#1195,'mechanical');
#1194=APPLICATION_PROTOCOL_DEFINITION('international standard',
'ap242_managed_model_based_3d_engineering',2020,#1195);
#1195=APPLICATION_CONTEXT('managed model based 3d engineering');
ENDSEC;
END-ISO-10303-21;
