ISO-10303-21;
HEADER;
/* Generated by software containing ST-Developer
 * from STEP Tools, Inc. (www.steptools.com) 
 */
/* OPTION: using custom renumber hook */

FILE_DESCRIPTION(
/* description */ ('STEP AP242 Edition 2',
'CAx-IF Rec.Pracs.---Representation and Presentation of Product Manufa
cturing Information (PMI)---4.0---2014-10-13',
'CAx-IF Rec.Pracs.---3D Tessellated Geometry---0.4---2014-09-14','2;1',
'CAx-IF Rec.Pracs.---User Defined Attributes---1.5---2016-08-15'),
/* implementation_level */ '2;1');

FILE_NAME(
/* name */ 'Base - Button',
/* time_stamp */ '2026-02-18T00:51:26Z',
/* author */ (''),
/* organization */ (''),
/* preprocessor_version */ 'ST-DEVELOPER v20',
/* originating_system */ 'ONSHAPE BY PTC INC, 1.210',
/* authorisation */ '  ');

FILE_SCHEMA (('AP242_MANAGED_MODEL_BASED_3D_ENGINEERING_MIM_LF { 1 0 10303 442 3 1 4 }'));
ENDSEC;

DATA;
#10=SHAPE_REPRESENTATION_RELATIONSHIP('','',#431,#11);
#11=ADVANCED_BREP_SHAPE_REPRESENTATION('',(#429),#1029);
#12=VERTEX_LOOP('',#288);
#13=PLANE('',#449);
#14=PLANE('',#454);
#15=PLANE('',#455);
#16=PLANE('',#458);
#17=PLANE('',#459);
#18=PLANE('',#460);
#19=PLANE('',#463);
#20=PLANE('',#464);
#21=PLANE('',#465);
#22=PLANE('',#468);
#23=PLANE('',#469);
#24=PLANE('',#470);
#25=PLANE('',#473);
#26=PLANE('',#477);
#27=PLANE('',#478);
#28=LINE('',#768,#60);
#29=LINE('',#773,#61);
#30=LINE('',#777,#62);
#31=LINE('',#781,#63);
#32=LINE('',#785,#64);
#33=LINE('',#789,#65);
#34=LINE('',#793,#66);
#35=LINE('',#797,#67);
#36=LINE('',#804,#68);
#37=LINE('',#808,#69);
#38=LINE('',#809,#70);
#39=LINE('',#813,#71);
#40=LINE('',#814,#72);
#41=LINE('',#818,#73);
#42=LINE('',#819,#74);
#43=LINE('',#823,#75);
#44=LINE('',#978,#76);
#45=LINE('',#980,#77);
#46=LINE('',#982,#78);
#47=LINE('',#984,#79);
#48=LINE('',#989,#80);
#49=LINE('',#991,#81);
#50=LINE('',#993,#82);
#51=LINE('',#995,#83);
#52=LINE('',#1000,#84);
#53=LINE('',#1002,#85);
#54=LINE('',#1004,#86);
#55=LINE('',#1006,#87);
#56=LINE('',#1011,#88);
#57=LINE('',#1013,#89);
#58=LINE('',#1015,#90);
#59=LINE('',#1017,#91);
#60=VECTOR('',#493,1.);
#61=VECTOR('',#496,1.);
#62=VECTOR('',#499,1.);
#63=VECTOR('',#502,1.);
#64=VECTOR('',#505,1.);
#65=VECTOR('',#508,1.);
#66=VECTOR('',#511,1.);
#67=VECTOR('',#514,1.);
#68=VECTOR('',#523,1.);
#69=VECTOR('',#526,1.);
#70=VECTOR('',#527,1.);
#71=VECTOR('',#530,1.);
#72=VECTOR('',#531,1.);
#73=VECTOR('',#534,1.);
#74=VECTOR('',#535,1.);
#75=VECTOR('',#538,1.);
#76=VECTOR('',#541,1.);
#77=VECTOR('',#542,1.);
#78=VECTOR('',#545,1.);
#79=VECTOR('',#546,1.);
#80=VECTOR('',#555,1.);
#81=VECTOR('',#556,1.);
#82=VECTOR('',#559,1.);
#83=VECTOR('',#560,1.);
#84=VECTOR('',#569,1.);
#85=VECTOR('',#570,1.);
#86=VECTOR('',#573,1.);
#87=VECTOR('',#574,1.);
#88=VECTOR('',#583,1.);
#89=VECTOR('',#584,1.);
#90=VECTOR('',#587,1.);
#91=VECTOR('',#588,1.);
#92=B_SPLINE_SURFACE_WITH_KNOTS('',3,3,((#611,#612,#613,#614,#615,#616,
#617,#618,#619,#620,#621,#622,#623,#624,#625,#626,#627,#628,#629),(#630,
#631,#632,#633,#634,#635,#636,#637,#638,#639,#640,#641,#642,#643,#644,#645,
#646,#647,#648),(#649,#650,#651,#652,#653,#654,#655,#656,#657,#658,#659,
#660,#661,#662,#663,#664,#665,#666,#667),(#668,#669,#670,#671,#672,#673,
#674,#675,#676,#677,#678,#679,#680,#681,#682,#683,#684,#685,#686),(#687,
#688,#689,#690,#691,#692,#693,#694,#695,#696,#697,#698,#699,#700,#701,#702,
#703,#704,#705),(#706,#707,#708,#709,#710,#711,#712,#713,#714,#715,#716,
#717,#718,#719,#720,#721,#722,#723,#724),(#725,#726,#727,#728,#729,#730,
#731,#732,#733,#734,#735,#736,#737,#738,#739,#740,#741,#742,#743),(#744,
#745,#746,#747,#748,#749,#750,#751,#752,#753,#754,#755,#756,#757,#758,#759,
#760,#761,#762)),.UNSPECIFIED.,.F.,.T.,.F.,(4,1,1,1,1,4),(1,1,1,1,1,1,1,
1,1,1,1,1,1,1,1,1,1,1,1,1,1,1,1),(0.,0.374245751217684,0.561368626826526,
0.810865794304982,1.06036296178344,1.49698300487074),(-1.17809724509617,
-0.785398163397448,-0.392699081698725,0.,0.392699081698724,0.785398163397448,
1.17809724509617,1.5707963267949,1.96349540849362,2.35619449019234,2.74889357189107,
3.14159265358979,3.53429173528852,3.92699081698724,4.31968989868597,4.71238898038469,
5.10508806208341,5.49778714378214,5.89048622548086,6.28318530717959,6.67588438887831,
7.06858347057703,7.46128255227576),.UNSPECIFIED.);
#93=B_SPLINE_SURFACE_WITH_KNOTS('',3,3,((#824,#825,#826,#827,#828,#829,
#830,#831,#832,#833,#834,#835,#836,#837,#838,#839,#840,#841,#842),(#843,
#844,#845,#846,#847,#848,#849,#850,#851,#852,#853,#854,#855,#856,#857,#858,
#859,#860,#861),(#862,#863,#864,#865,#866,#867,#868,#869,#870,#871,#872,
#873,#874,#875,#876,#877,#878,#879,#880),(#881,#882,#883,#884,#885,#886,
#887,#888,#889,#890,#891,#892,#893,#894,#895,#896,#897,#898,#899),(#900,
#901,#902,#903,#904,#905,#906,#907,#908,#909,#910,#911,#912,#913,#914,#915,
#916,#917,#918),(#919,#920,#921,#922,#923,#924,#925,#926,#927,#928,#929,
#930,#931,#932,#933,#934,#935,#936,#937),(#938,#939,#940,#941,#942,#943,
#944,#945,#946,#947,#948,#949,#950,#951,#952,#953,#954,#955,#956),(#957,
#958,#959,#960,#961,#962,#963,#964,#965,#966,#967,#968,#969,#970,#971,#972,
#973,#974,#975)),.UNSPECIFIED.,.F.,.T.,.F.,(4,1,1,1,1,4),(1,1,1,1,1,1,1,
1,1,1,1,1,1,1,1,1,1,1,1,1,1,1,1),(0.,0.392699081698724,0.589048622548086,
0.850848010347235,1.11264739814638,1.5707963267949),(-1.17809724509617,
-0.785398163397448,-0.392699081698725,0.,0.392699081698724,0.785398163397448,
1.17809724509617,1.5707963267949,1.96349540849362,2.35619449019234,2.74889357189107,
3.14159265358979,3.53429173528852,3.92699081698724,4.31968989868597,4.71238898038469,
5.10508806208341,5.49778714378214,5.89048622548086,6.28318530717959,6.67588438887831,
7.06858347057703,7.46128255227576),.UNSPECIFIED.);
#94=ORIENTED_EDGE('',*,*,#204,.T.);
#95=ORIENTED_EDGE('',*,*,#205,.T.);
#96=ORIENTED_EDGE('',*,*,#206,.T.);
#97=ORIENTED_EDGE('',*,*,#204,.F.);
#98=ORIENTED_EDGE('',*,*,#207,.F.);
#99=ORIENTED_EDGE('',*,*,#208,.F.);
#100=ORIENTED_EDGE('',*,*,#209,.T.);
#101=ORIENTED_EDGE('',*,*,#210,.T.);
#102=ORIENTED_EDGE('',*,*,#211,.T.);
#103=ORIENTED_EDGE('',*,*,#212,.F.);
#104=ORIENTED_EDGE('',*,*,#213,.T.);
#105=ORIENTED_EDGE('',*,*,#214,.T.);
#106=ORIENTED_EDGE('',*,*,#215,.T.);
#107=ORIENTED_EDGE('',*,*,#216,.F.);
#108=ORIENTED_EDGE('',*,*,#217,.T.);
#109=ORIENTED_EDGE('',*,*,#218,.T.);
#110=ORIENTED_EDGE('',*,*,#219,.T.);
#111=ORIENTED_EDGE('',*,*,#220,.F.);
#112=ORIENTED_EDGE('',*,*,#221,.T.);
#113=ORIENTED_EDGE('',*,*,#222,.T.);
#114=ORIENTED_EDGE('',*,*,#223,.T.);
#115=ORIENTED_EDGE('',*,*,#206,.F.);
#116=ORIENTED_EDGE('',*,*,#224,.F.);
#117=ORIENTED_EDGE('',*,*,#224,.T.);
#118=ORIENTED_EDGE('',*,*,#223,.F.);
#119=ORIENTED_EDGE('',*,*,#225,.T.);
#120=ORIENTED_EDGE('',*,*,#226,.T.);
#121=ORIENTED_EDGE('',*,*,#227,.F.);
#122=ORIENTED_EDGE('',*,*,#219,.F.);
#123=ORIENTED_EDGE('',*,*,#228,.T.);
#124=ORIENTED_EDGE('',*,*,#229,.T.);
#125=ORIENTED_EDGE('',*,*,#230,.F.);
#126=ORIENTED_EDGE('',*,*,#215,.F.);
#127=ORIENTED_EDGE('',*,*,#231,.T.);
#128=ORIENTED_EDGE('',*,*,#232,.T.);
#129=ORIENTED_EDGE('',*,*,#233,.F.);
#130=ORIENTED_EDGE('',*,*,#211,.F.);
#131=ORIENTED_EDGE('',*,*,#234,.T.);
#132=ORIENTED_EDGE('',*,*,#235,.T.);
#133=ORIENTED_EDGE('',*,*,#236,.F.);
#134=ORIENTED_EDGE('',*,*,#207,.T.);
#135=ORIENTED_EDGE('',*,*,#227,.T.);
#136=ORIENTED_EDGE('',*,*,#237,.F.);
#137=ORIENTED_EDGE('',*,*,#238,.F.);
#138=ORIENTED_EDGE('',*,*,#220,.T.);
#139=ORIENTED_EDGE('',*,*,#225,.F.);
#140=ORIENTED_EDGE('',*,*,#222,.F.);
#141=ORIENTED_EDGE('',*,*,#239,.T.);
#142=ORIENTED_EDGE('',*,*,#240,.T.);
#143=ORIENTED_EDGE('',*,*,#226,.F.);
#144=ORIENTED_EDGE('',*,*,#240,.F.);
#145=ORIENTED_EDGE('',*,*,#241,.T.);
#146=ORIENTED_EDGE('',*,*,#237,.T.);
#147=ORIENTED_EDGE('',*,*,#238,.T.);
#148=ORIENTED_EDGE('',*,*,#241,.F.);
#149=ORIENTED_EDGE('',*,*,#239,.F.);
#150=ORIENTED_EDGE('',*,*,#221,.F.);
#151=ORIENTED_EDGE('',*,*,#230,.T.);
#152=ORIENTED_EDGE('',*,*,#242,.F.);
#153=ORIENTED_EDGE('',*,*,#243,.F.);
#154=ORIENTED_EDGE('',*,*,#216,.T.);
#155=ORIENTED_EDGE('',*,*,#228,.F.);
#156=ORIENTED_EDGE('',*,*,#218,.F.);
#157=ORIENTED_EDGE('',*,*,#244,.T.);
#158=ORIENTED_EDGE('',*,*,#245,.T.);
#159=ORIENTED_EDGE('',*,*,#229,.F.);
#160=ORIENTED_EDGE('',*,*,#245,.F.);
#161=ORIENTED_EDGE('',*,*,#246,.T.);
#162=ORIENTED_EDGE('',*,*,#242,.T.);
#163=ORIENTED_EDGE('',*,*,#243,.T.);
#164=ORIENTED_EDGE('',*,*,#246,.F.);
#165=ORIENTED_EDGE('',*,*,#244,.F.);
#166=ORIENTED_EDGE('',*,*,#217,.F.);
#167=ORIENTED_EDGE('',*,*,#233,.T.);
#168=ORIENTED_EDGE('',*,*,#247,.F.);
#169=ORIENTED_EDGE('',*,*,#248,.F.);
#170=ORIENTED_EDGE('',*,*,#212,.T.);
#171=ORIENTED_EDGE('',*,*,#231,.F.);
#172=ORIENTED_EDGE('',*,*,#214,.F.);
#173=ORIENTED_EDGE('',*,*,#249,.T.);
#174=ORIENTED_EDGE('',*,*,#250,.T.);
#175=ORIENTED_EDGE('',*,*,#232,.F.);
#176=ORIENTED_EDGE('',*,*,#250,.F.);
#177=ORIENTED_EDGE('',*,*,#251,.T.);
#178=ORIENTED_EDGE('',*,*,#247,.T.);
#179=ORIENTED_EDGE('',*,*,#248,.T.);
#180=ORIENTED_EDGE('',*,*,#251,.F.);
#181=ORIENTED_EDGE('',*,*,#249,.F.);
#182=ORIENTED_EDGE('',*,*,#213,.F.);
#183=ORIENTED_EDGE('',*,*,#236,.T.);
#184=ORIENTED_EDGE('',*,*,#252,.F.);
#185=ORIENTED_EDGE('',*,*,#253,.F.);
#186=ORIENTED_EDGE('',*,*,#208,.T.);
#187=ORIENTED_EDGE('',*,*,#234,.F.);
#188=ORIENTED_EDGE('',*,*,#210,.F.);
#189=ORIENTED_EDGE('',*,*,#254,.T.);
#190=ORIENTED_EDGE('',*,*,#255,.T.);
#191=ORIENTED_EDGE('',*,*,#235,.F.);
#192=ORIENTED_EDGE('',*,*,#255,.F.);
#193=ORIENTED_EDGE('',*,*,#256,.T.);
#194=ORIENTED_EDGE('',*,*,#252,.T.);
#195=ORIENTED_EDGE('',*,*,#253,.T.);
#196=ORIENTED_EDGE('',*,*,#256,.F.);
#197=ORIENTED_EDGE('',*,*,#254,.F.);
#198=ORIENTED_EDGE('',*,*,#209,.F.);
#199=ORIENTED_EDGE('',*,*,#257,.T.);
#200=ORIENTED_EDGE('',*,*,#258,.F.);
#201=ORIENTED_EDGE('',*,*,#205,.F.);
#202=ORIENTED_EDGE('',*,*,#257,.F.);
#203=ORIENTED_EDGE('',*,*,#258,.T.);
#204=EDGE_CURVE('',#259,#259,#299,.T.);
#205=EDGE_CURVE('',#260,#260,#300,.T.);
#206=EDGE_CURVE('',#261,#261,#301,.T.);
#207=EDGE_CURVE('',#262,#262,#302,.T.);
#208=EDGE_CURVE('',#263,#264,#28,.T.);
#209=EDGE_CURVE('',#263,#265,#303,.T.);
#210=EDGE_CURVE('',#265,#266,#29,.T.);
#211=EDGE_CURVE('',#266,#267,#304,.T.);
#212=EDGE_CURVE('',#268,#267,#30,.T.);
#213=EDGE_CURVE('',#268,#269,#305,.T.);
#214=EDGE_CURVE('',#269,#270,#31,.T.);
#215=EDGE_CURVE('',#270,#271,#306,.T.);
#216=EDGE_CURVE('',#272,#271,#32,.T.);
#217=EDGE_CURVE('',#272,#273,#307,.T.);
#218=EDGE_CURVE('',#273,#274,#33,.T.);
#219=EDGE_CURVE('',#274,#275,#308,.T.);
#220=EDGE_CURVE('',#276,#275,#34,.T.);
#221=EDGE_CURVE('',#276,#277,#309,.T.);
#222=EDGE_CURVE('',#277,#278,#35,.T.);
#223=EDGE_CURVE('',#278,#264,#310,.T.);
#224=EDGE_CURVE('',#279,#279,#311,.T.);
#225=EDGE_CURVE('',#278,#280,#36,.T.);
#226=EDGE_CURVE('',#280,#281,#312,.T.);
#227=EDGE_CURVE('',#275,#281,#37,.T.);
#228=EDGE_CURVE('',#274,#282,#38,.T.);
#229=EDGE_CURVE('',#282,#283,#313,.T.);
#230=EDGE_CURVE('',#271,#283,#39,.T.);
#231=EDGE_CURVE('',#270,#284,#40,.T.);
#232=EDGE_CURVE('',#284,#285,#314,.T.);
#233=EDGE_CURVE('',#267,#285,#41,.T.);
#234=EDGE_CURVE('',#266,#286,#42,.T.);
#235=EDGE_CURVE('',#286,#287,#315,.T.);
#236=EDGE_CURVE('',#264,#287,#43,.T.);
#237=EDGE_CURVE('',#289,#281,#44,.T.);
#238=EDGE_CURVE('',#276,#289,#45,.T.);
#239=EDGE_CURVE('',#277,#290,#46,.T.);
#240=EDGE_CURVE('',#290,#280,#47,.T.);
#241=EDGE_CURVE('',#290,#289,#316,.T.);
#242=EDGE_CURVE('',#291,#283,#48,.T.);
#243=EDGE_CURVE('',#272,#291,#49,.T.);
#244=EDGE_CURVE('',#273,#292,#50,.T.);
#245=EDGE_CURVE('',#292,#282,#51,.T.);
#246=EDGE_CURVE('',#292,#291,#317,.T.);
#247=EDGE_CURVE('',#293,#285,#52,.T.);
#248=EDGE_CURVE('',#268,#293,#53,.T.);
#249=EDGE_CURVE('',#269,#294,#54,.T.);
#250=EDGE_CURVE('',#294,#284,#55,.T.);
#251=EDGE_CURVE('',#294,#293,#318,.T.);
#252=EDGE_CURVE('',#295,#287,#56,.T.);
#253=EDGE_CURVE('',#263,#295,#57,.T.);
#254=EDGE_CURVE('',#265,#296,#58,.T.);
#255=EDGE_CURVE('',#296,#286,#59,.T.);
#256=EDGE_CURVE('',#296,#295,#319,.T.);
#257=EDGE_CURVE('',#297,#297,#320,.T.);
#258=EDGE_CURVE('',#298,#298,#321,.T.);
#259=VERTEX_POINT('',#608);
#260=VERTEX_POINT('',#610);
#261=VERTEX_POINT('',#764);
#262=VERTEX_POINT('',#767);
#263=VERTEX_POINT('',#769);
#264=VERTEX_POINT('',#770);
#265=VERTEX_POINT('',#772);
#266=VERTEX_POINT('',#774);
#267=VERTEX_POINT('',#776);
#268=VERTEX_POINT('',#778);
#269=VERTEX_POINT('',#780);
#270=VERTEX_POINT('',#782);
#271=VERTEX_POINT('',#784);
#272=VERTEX_POINT('',#786);
#273=VERTEX_POINT('',#788);
#274=VERTEX_POINT('',#790);
#275=VERTEX_POINT('',#792);
#276=VERTEX_POINT('',#794);
#277=VERTEX_POINT('',#796);
#278=VERTEX_POINT('',#798);
#279=VERTEX_POINT('',#802);
#280=VERTEX_POINT('',#805);
#281=VERTEX_POINT('',#807);
#282=VERTEX_POINT('',#810);
#283=VERTEX_POINT('',#812);
#284=VERTEX_POINT('',#815);
#285=VERTEX_POINT('',#817);
#286=VERTEX_POINT('',#820);
#287=VERTEX_POINT('',#822);
#288=VERTEX_POINT('',#976);
#289=VERTEX_POINT('',#979);
#290=VERTEX_POINT('',#983);
#291=VERTEX_POINT('',#990);
#292=VERTEX_POINT('',#994);
#293=VERTEX_POINT('',#1001);
#294=VERTEX_POINT('',#1005);
#295=VERTEX_POINT('',#1012);
#296=VERTEX_POINT('',#1016);
#297=VERTEX_POINT('',#1023);
#298=VERTEX_POINT('',#1025);
#299=CIRCLE('',#434,0.0025);
#300=CIRCLE('',#435,0.0025);
#301=CIRCLE('',#436,0.0339);
#302=CIRCLE('',#438,0.0351);
#303=CIRCLE('',#439,0.0351);
#304=CIRCLE('',#440,0.0351);
#305=CIRCLE('',#441,0.0351);
#306=CIRCLE('',#442,0.0351);
#307=CIRCLE('',#443,0.0351);
#308=CIRCLE('',#444,0.0351);
#309=CIRCLE('',#445,0.0351);
#310=CIRCLE('',#446,0.0351);
#311=CIRCLE('',#448,0.0339);
#312=CIRCLE('',#450,0.0371);
#313=CIRCLE('',#451,0.0371);
#314=CIRCLE('',#452,0.0371);
#315=CIRCLE('',#453,0.0371);
#316=CIRCLE('',#457,0.0371);
#317=CIRCLE('',#462,0.0371);
#318=CIRCLE('',#467,0.0371);
#319=CIRCLE('',#472,0.0371);
#320=CIRCLE('',#475,0.006);
#321=CIRCLE('',#476,0.006);
#322=EDGE_LOOP('',(#94));
#323=EDGE_LOOP('',(#95));
#324=EDGE_LOOP('',(#96));
#325=EDGE_LOOP('',(#97));
#326=EDGE_LOOP('',(#98));
#327=EDGE_LOOP('',(#99,#100,#101,#102,#103,#104,#105,#106,#107,#108,#109,
#110,#111,#112,#113,#114));
#328=EDGE_LOOP('',(#115));
#329=EDGE_LOOP('',(#116));
#330=EDGE_LOOP('',(#117));
#331=EDGE_LOOP('',(#118,#119,#120,#121,#122,#123,#124,#125,#126,#127,#128,
#129,#130,#131,#132,#133));
#332=EDGE_LOOP('',(#134));
#333=EDGE_LOOP('',(#135,#136,#137,#138));
#334=EDGE_LOOP('',(#139,#140,#141,#142));
#335=EDGE_LOOP('',(#143,#144,#145,#146));
#336=EDGE_LOOP('',(#147,#148,#149,#150));
#337=EDGE_LOOP('',(#151,#152,#153,#154));
#338=EDGE_LOOP('',(#155,#156,#157,#158));
#339=EDGE_LOOP('',(#159,#160,#161,#162));
#340=EDGE_LOOP('',(#163,#164,#165,#166));
#341=EDGE_LOOP('',(#167,#168,#169,#170));
#342=EDGE_LOOP('',(#171,#172,#173,#174));
#343=EDGE_LOOP('',(#175,#176,#177,#178));
#344=EDGE_LOOP('',(#179,#180,#181,#182));
#345=EDGE_LOOP('',(#183,#184,#185,#186));
#346=EDGE_LOOP('',(#187,#188,#189,#190));
#347=EDGE_LOOP('',(#191,#192,#193,#194));
#348=EDGE_LOOP('',(#195,#196,#197,#198));
#349=EDGE_LOOP('',(#199));
#350=EDGE_LOOP('',(#200));
#351=EDGE_LOOP('',(#201));
#352=EDGE_LOOP('',(#202));
#353=EDGE_LOOP('',(#203));
#354=FACE_BOUND('',#322,.T.);
#355=FACE_BOUND('',#323,.T.);
#356=FACE_BOUND('',#324,.T.);
#357=FACE_BOUND('',#325,.T.);
#358=FACE_BOUND('',#326,.T.);
#359=FACE_BOUND('',#327,.T.);
#360=FACE_BOUND('',#328,.T.);
#361=FACE_BOUND('',#329,.T.);
#362=FACE_BOUND('',#330,.T.);
#363=FACE_BOUND('',#331,.T.);
#364=FACE_BOUND('',#12,.T.);
#365=FACE_BOUND('',#332,.T.);
#366=FACE_BOUND('',#333,.T.);
#367=FACE_BOUND('',#334,.T.);
#368=FACE_BOUND('',#335,.T.);
#369=FACE_BOUND('',#336,.T.);
#370=FACE_BOUND('',#337,.T.);
#371=FACE_BOUND('',#338,.T.);
#372=FACE_BOUND('',#339,.T.);
#373=FACE_BOUND('',#340,.T.);
#374=FACE_BOUND('',#341,.T.);
#375=FACE_BOUND('',#342,.T.);
#376=FACE_BOUND('',#343,.T.);
#377=FACE_BOUND('',#344,.T.);
#378=FACE_BOUND('',#345,.T.);
#379=FACE_BOUND('',#346,.T.);
#380=FACE_BOUND('',#347,.T.);
#381=FACE_BOUND('',#348,.T.);
#382=FACE_BOUND('',#349,.T.);
#383=FACE_BOUND('',#350,.T.);
#384=FACE_BOUND('',#351,.T.);
#385=FACE_BOUND('',#352,.T.);
#386=FACE_BOUND('',#353,.T.);
#387=CYLINDRICAL_SURFACE('',#433,0.0025);
#388=CYLINDRICAL_SURFACE('',#437,0.0351);
#389=CYLINDRICAL_SURFACE('',#447,0.0339);
#390=CYLINDRICAL_SURFACE('',#456,0.0371);
#391=CYLINDRICAL_SURFACE('',#461,0.0371);
#392=CYLINDRICAL_SURFACE('',#466,0.0371);
#393=CYLINDRICAL_SURFACE('',#471,0.0371);
#394=CYLINDRICAL_SURFACE('',#474,0.006);
#395=ADVANCED_FACE('',(#354,#355),#387,.T.);
#396=ADVANCED_FACE('',(#356,#357),#92,.F.);
#397=ADVANCED_FACE('',(#358,#359),#388,.T.);
#398=ADVANCED_FACE('',(#360,#361),#389,.F.);
#399=ADVANCED_FACE('',(#362,#363),#13,.F.);
#400=ADVANCED_FACE('',(#364,#365),#93,.T.);
#401=ADVANCED_FACE('',(#366),#14,.F.);
#402=ADVANCED_FACE('',(#367),#15,.T.);
#403=ADVANCED_FACE('',(#368),#390,.T.);
#404=ADVANCED_FACE('',(#369),#16,.F.);
#405=ADVANCED_FACE('',(#370),#17,.F.);
#406=ADVANCED_FACE('',(#371),#18,.T.);
#407=ADVANCED_FACE('',(#372),#391,.T.);
#408=ADVANCED_FACE('',(#373),#19,.F.);
#409=ADVANCED_FACE('',(#374),#20,.F.);
#410=ADVANCED_FACE('',(#375),#21,.T.);
#411=ADVANCED_FACE('',(#376),#392,.T.);
#412=ADVANCED_FACE('',(#377),#22,.F.);
#413=ADVANCED_FACE('',(#378),#23,.F.);
#414=ADVANCED_FACE('',(#379),#24,.T.);
#415=ADVANCED_FACE('',(#380),#393,.T.);
#416=ADVANCED_FACE('',(#381),#25,.F.);
#417=ADVANCED_FACE('',(#382,#383),#394,.T.);
#418=ADVANCED_FACE('',(#384,#385),#26,.F.);
#419=ADVANCED_FACE('',(#386),#27,.F.);
#420=CLOSED_SHELL('',(#395,#396,#397,#398,#399,#400,#401,#402,#403,#404,
#405,#406,#407,#408,#409,#410,#411,#412,#413,#414,#415,#416,#417,#418,#419));
#421=STYLED_ITEM('',(#422),#429);
#422=PRESENTATION_STYLE_ASSIGNMENT((#423));
#423=SURFACE_STYLE_USAGE(.BOTH.,#424);
#424=SURFACE_SIDE_STYLE('',(#425));
#425=SURFACE_STYLE_FILL_AREA(#426);
#426=FILL_AREA_STYLE('',(#427));
#427=FILL_AREA_STYLE_COLOUR('',#428);
#428=COLOUR_RGB('',0.909803921568627,0.572549019607843,0.164705882352941);
#429=MANIFOLD_SOLID_BREP('Button',#420);
#430=SHAPE_DEFINITION_REPRESENTATION(#1034,#431);
#431=SHAPE_REPRESENTATION('Button',(#432),#1029);
#432=AXIS2_PLACEMENT_3D('',#605,#479,#480);
#433=AXIS2_PLACEMENT_3D('',#606,#481,#482);
#434=AXIS2_PLACEMENT_3D('',#607,#483,#484);
#435=AXIS2_PLACEMENT_3D('',#609,#485,#486);
#436=AXIS2_PLACEMENT_3D('',#763,#487,#488);
#437=AXIS2_PLACEMENT_3D('',#765,#489,#490);
#438=AXIS2_PLACEMENT_3D('',#766,#491,#492);
#439=AXIS2_PLACEMENT_3D('',#771,#494,#495);
#440=AXIS2_PLACEMENT_3D('',#775,#497,#498);
#441=AXIS2_PLACEMENT_3D('',#779,#500,#501);
#442=AXIS2_PLACEMENT_3D('',#783,#503,#504);
#443=AXIS2_PLACEMENT_3D('',#787,#506,#507);
#444=AXIS2_PLACEMENT_3D('',#791,#509,#510);
#445=AXIS2_PLACEMENT_3D('',#795,#512,#513);
#446=AXIS2_PLACEMENT_3D('',#799,#515,#516);
#447=AXIS2_PLACEMENT_3D('',#800,#517,#518);
#448=AXIS2_PLACEMENT_3D('',#801,#519,#520);
#449=AXIS2_PLACEMENT_3D('',#803,#521,#522);
#450=AXIS2_PLACEMENT_3D('',#806,#524,#525);
#451=AXIS2_PLACEMENT_3D('',#811,#528,#529);
#452=AXIS2_PLACEMENT_3D('',#816,#532,#533);
#453=AXIS2_PLACEMENT_3D('',#821,#536,#537);
#454=AXIS2_PLACEMENT_3D('',#977,#539,#540);
#455=AXIS2_PLACEMENT_3D('',#981,#543,#544);
#456=AXIS2_PLACEMENT_3D('',#985,#547,#548);
#457=AXIS2_PLACEMENT_3D('',#986,#549,#550);
#458=AXIS2_PLACEMENT_3D('',#987,#551,#552);
#459=AXIS2_PLACEMENT_3D('',#988,#553,#554);
#460=AXIS2_PLACEMENT_3D('',#992,#557,#558);
#461=AXIS2_PLACEMENT_3D('',#996,#561,#562);
#462=AXIS2_PLACEMENT_3D('',#997,#563,#564);
#463=AXIS2_PLACEMENT_3D('',#998,#565,#566);
#464=AXIS2_PLACEMENT_3D('',#999,#567,#568);
#465=AXIS2_PLACEMENT_3D('',#1003,#571,#572);
#466=AXIS2_PLACEMENT_3D('',#1007,#575,#576);
#467=AXIS2_PLACEMENT_3D('',#1008,#577,#578);
#468=AXIS2_PLACEMENT_3D('',#1009,#579,#580);
#469=AXIS2_PLACEMENT_3D('',#1010,#581,#582);
#470=AXIS2_PLACEMENT_3D('',#1014,#585,#586);
#471=AXIS2_PLACEMENT_3D('',#1018,#589,#590);
#472=AXIS2_PLACEMENT_3D('',#1019,#591,#592);
#473=AXIS2_PLACEMENT_3D('',#1020,#593,#594);
#474=AXIS2_PLACEMENT_3D('',#1021,#595,#596);
#475=AXIS2_PLACEMENT_3D('',#1022,#597,#598);
#476=AXIS2_PLACEMENT_3D('',#1024,#599,#600);
#477=AXIS2_PLACEMENT_3D('',#1026,#601,#602);
#478=AXIS2_PLACEMENT_3D('',#1027,#603,#604);
#479=DIRECTION('',(0.,0.,1.));
#480=DIRECTION('',(1.,0.,0.));
#481=DIRECTION('',(0.,0.,-1.));
#482=DIRECTION('',(-1.,0.,0.));
#483=DIRECTION('',(0.,0.,-1.));
#484=DIRECTION('',(-1.,0.,0.));
#485=DIRECTION('',(0.,0.,1.));
#486=DIRECTION('',(1.,0.,0.));
#487=DIRECTION('',(0.,0.,-1.));
#488=DIRECTION('',(-1.,0.,0.));
#489=DIRECTION('',(0.,0.,-1.));
#490=DIRECTION('',(-1.,0.,0.));
#491=DIRECTION('',(0.,0.,1.));
#492=DIRECTION('',(1.,0.,0.));
#493=DIRECTION('',(0.,0.,-1.));
#494=DIRECTION('',(0.,0.,1.));
#495=DIRECTION('',(-1.83697019872103E-16,1.,0.));
#496=DIRECTION('',(0.,0.,-1.));
#497=DIRECTION('',(0.,0.,1.));
#498=DIRECTION('',(1.,0.,0.));
#499=DIRECTION('',(0.,0.,-1.));
#500=DIRECTION('',(0.,0.,1.));
#501=DIRECTION('',(-1.,-1.22464679914735E-16,0.));
#502=DIRECTION('',(0.,0.,-1.));
#503=DIRECTION('',(0.,0.,1.));
#504=DIRECTION('',(1.,0.,0.));
#505=DIRECTION('',(0.,0.,-1.));
#506=DIRECTION('',(0.,0.,1.));
#507=DIRECTION('',(6.12323399573677E-17,-1.,0.));
#508=DIRECTION('',(0.,0.,-1.));
#509=DIRECTION('',(0.,0.,1.));
#510=DIRECTION('',(1.,0.,0.));
#511=DIRECTION('',(0.,0.,-1.));
#512=DIRECTION('',(0.,0.,1.));
#513=DIRECTION('',(1.,0.,0.));
#514=DIRECTION('',(0.,0.,-1.));
#515=DIRECTION('',(0.,0.,1.));
#516=DIRECTION('',(1.,0.,0.));
#517=DIRECTION('',(0.,0.,-1.));
#518=DIRECTION('',(-1.,0.,0.));
#519=DIRECTION('',(0.,0.,1.));
#520=DIRECTION('',(1.,0.,0.));
#521=DIRECTION('',(0.,0.,1.));
#522=DIRECTION('',(1.,0.,0.));
#523=DIRECTION('',(0.997564050259824,-0.0697564737441253,0.));
#524=DIRECTION('',(0.,0.,-1.));
#525=DIRECTION('',(-1.,0.,0.));
#526=DIRECTION('',(0.731353701619171,-0.681998360062498,0.));
#527=DIRECTION('',(-0.0697564737441252,-0.997564050259824,0.));
#528=DIRECTION('',(0.,0.,-1.));
#529=DIRECTION('',(-6.12323399573677E-17,1.,0.));
#530=DIRECTION('',(-0.681998360062498,-0.731353701619171,0.));
#531=DIRECTION('',(-0.997564050259824,0.0697564737441252,0.));
#532=DIRECTION('',(0.,0.,-1.));
#533=DIRECTION('',(1.,1.22464679914735E-16,0.));
#534=DIRECTION('',(-0.731353701619171,0.681998360062498,0.));
#535=DIRECTION('',(0.0697564737441251,0.997564050259824,0.));
#536=DIRECTION('',(0.,0.,-1.));
#537=DIRECTION('',(1.83697019872103E-16,-1.,0.));
#538=DIRECTION('',(0.681998360062498,0.731353701619171,0.));
#539=DIRECTION('',(0.681998360062498,0.731353701619171,0.));
#540=DIRECTION('',(-0.731353701619171,0.681998360062498,0.));
#541=DIRECTION('',(0.,0.,-1.));
#542=DIRECTION('',(0.731353701619171,-0.681998360062498,0.));
#543=DIRECTION('',(0.0697564737441253,0.997564050259824,0.));
#544=DIRECTION('',(-0.997564050259824,0.0697564737441253,0.));
#545=DIRECTION('',(0.997564050259824,-0.0697564737441253,0.));
#546=DIRECTION('',(0.,0.,-1.));
#547=DIRECTION('',(0.,0.,-1.));
#548=DIRECTION('',(-1.,0.,0.));
#549=DIRECTION('',(0.,0.,-1.));
#550=DIRECTION('',(-1.,0.,0.));
#551=DIRECTION('',(0.,0.,-1.));
#552=DIRECTION('',(1.,0.,0.));
#553=DIRECTION('',(0.731353701619171,-0.681998360062498,0.));
#554=DIRECTION('',(0.681998360062498,0.731353701619171,0.));
#555=DIRECTION('',(0.,0.,-1.));
#556=DIRECTION('',(-0.681998360062498,-0.731353701619171,0.));
#557=DIRECTION('',(0.997564050259824,-0.0697564737441252,0.));
#558=DIRECTION('',(0.0697564737441252,0.997564050259824,0.));
#559=DIRECTION('',(-0.0697564737441252,-0.997564050259824,0.));
#560=DIRECTION('',(0.,0.,-1.));
#561=DIRECTION('',(0.,0.,-1.));
#562=DIRECTION('',(-1.,0.,0.));
#563=DIRECTION('',(0.,0.,-1.));
#564=DIRECTION('',(-6.12323399573677E-17,1.,0.));
#565=DIRECTION('',(0.,0.,-1.));
#566=DIRECTION('',(6.12323399573677E-17,-1.,0.));
#567=DIRECTION('',(-0.681998360062498,-0.731353701619171,0.));
#568=DIRECTION('',(0.731353701619171,-0.681998360062498,0.));
#569=DIRECTION('',(0.,0.,-1.));
#570=DIRECTION('',(-0.731353701619171,0.681998360062498,0.));
#571=DIRECTION('',(-0.0697564737441252,-0.997564050259824,0.));
#572=DIRECTION('',(0.997564050259824,-0.0697564737441252,0.));
#573=DIRECTION('',(-0.997564050259824,0.0697564737441252,0.));
#574=DIRECTION('',(0.,0.,-1.));
#575=DIRECTION('',(0.,0.,-1.));
#576=DIRECTION('',(-1.,0.,0.));
#577=DIRECTION('',(0.,0.,-1.));
#578=DIRECTION('',(1.,1.22464679914735E-16,0.));
#579=DIRECTION('',(0.,0.,-1.));
#580=DIRECTION('',(-1.,-1.22464679914735E-16,0.));
#581=DIRECTION('',(-0.731353701619171,0.681998360062498,0.));
#582=DIRECTION('',(-0.681998360062498,-0.731353701619171,0.));
#583=DIRECTION('',(0.,0.,-1.));
#584=DIRECTION('',(0.681998360062498,0.731353701619171,0.));
#585=DIRECTION('',(-0.997564050259824,0.0697564737441251,0.));
#586=DIRECTION('',(-0.0697564737441251,-0.997564050259824,0.));
#587=DIRECTION('',(0.0697564737441251,0.997564050259824,0.));
#588=DIRECTION('',(0.,0.,-1.));
#589=DIRECTION('',(0.,0.,-1.));
#590=DIRECTION('',(-1.,0.,0.));
#591=DIRECTION('',(0.,0.,-1.));
#592=DIRECTION('',(1.83697019872103E-16,-1.,0.));
#593=DIRECTION('',(0.,0.,-1.));
#594=DIRECTION('',(-1.83697019872103E-16,1.,0.));
#595=DIRECTION('',(0.,0.,-1.));
#596=DIRECTION('',(-1.,0.,0.));
#597=DIRECTION('',(0.,0.,-1.));
#598=DIRECTION('',(-1.,0.,0.));
#599=DIRECTION('',(0.,0.,-1.));
#600=DIRECTION('',(-1.,0.,0.));
#601=DIRECTION('',(0.,0.,-1.));
#602=DIRECTION('',(1.,0.,0.));
#603=DIRECTION('',(0.,0.,1.));
#604=DIRECTION('',(1.,0.,0.));
#605=CARTESIAN_POINT('',(0.,0.,0.));
#606=CARTESIAN_POINT('',(0.,-1.53080849893419E-19,0.032002));
#607=CARTESIAN_POINT('',(0.,1.92881870865708E-18,0.030776037894001));
#608=CARTESIAN_POINT('',(-0.0025,1.92881870865708E-18,0.030776037894001));
#609=CARTESIAN_POINT('',(0.,-1.53080849893419E-19,0.018));
#610=CARTESIAN_POINT('',(0.0025,-1.53080849893419E-19,0.018));
#611=CARTESIAN_POINT('',(0.0321348904466314,0.0133107074483682,0.022));
#612=CARTESIAN_POINT('',(0.0347825547766843,2.62376925741492E-17,0.022));
#613=CARTESIAN_POINT('',(0.0321348904466313,-0.0133107074483683,0.022));
#614=CARTESIAN_POINT('',(0.024594980349586,-0.024594980349586,0.022));
#615=CARTESIAN_POINT('',(0.0133107074483683,-0.0321348904466313,0.022));
#616=CARTESIAN_POINT('',(7.68428289749101E-18,-0.0347825547766843,0.022));
#617=CARTESIAN_POINT('',(-0.0133107074483683,-0.0321348904466313,0.022));
#618=CARTESIAN_POINT('',(-0.024594980349586,-0.024594980349586,0.022));
#619=CARTESIAN_POINT('',(-0.0321348904466313,-0.0133107074483683,0.022));
#620=CARTESIAN_POINT('',(-0.0347825547766843,1.01564544331711E-19,0.022));
#621=CARTESIAN_POINT('',(-0.0321348904466314,0.0133107074483683,0.022));
#622=CARTESIAN_POINT('',(-0.024594980349586,0.024594980349586,0.022));
#623=CARTESIAN_POINT('',(-0.0133107074483683,0.0321348904466313,0.022));
#624=CARTESIAN_POINT('',(-7.31836466427715E-18,0.0347825547766843,0.022));
#625=CARTESIAN_POINT('',(0.0133107074483683,0.0321348904466314,0.022));
#626=CARTESIAN_POINT('',(0.0245949803495861,0.024594980349586,0.022));
#627=CARTESIAN_POINT('',(0.0321348904466314,0.0133107074483682,0.022));
#628=CARTESIAN_POINT('',(0.0347825547766843,2.62376925741492E-17,0.022));
#629=CARTESIAN_POINT('',(0.0321348904466313,-0.0133107074483683,0.022));
#630=CARTESIAN_POINT('',(0.0321377562129578,0.0133118944876472,0.0230979292576999));
#631=CARTESIAN_POINT('',(0.0347856566598039,2.71050543121376E-17,0.0230979292576999));
#632=CARTESIAN_POINT('',(0.0321377562129578,-0.0133118944876473,0.0230979292576999));
#633=CARTESIAN_POINT('',(0.0245971737121743,-0.0245971737121743,0.0230979292576999));
#634=CARTESIAN_POINT('',(0.0133118944876473,-0.0321377562129578,0.0230979292576999));
#635=CARTESIAN_POINT('',(1.03405782200805E-17,-0.0347856566598039,0.0230979292576999));
#636=CARTESIAN_POINT('',(-0.0133118944876473,-0.0321377562129578,0.0230979292576999));
#637=CARTESIAN_POINT('',(-0.0245971737121743,-0.0245971737121743,0.0230979292576999));
#638=CARTESIAN_POINT('',(-0.0321377562129578,-0.0133118944876473,0.0230979292576999));
#639=CARTESIAN_POINT('',(-0.0347856566598039,3.53932717010209E-18,0.0230979292576999));
#640=CARTESIAN_POINT('',(-0.0321377562129578,0.0133118944876473,0.0230979292576999));
#641=CARTESIAN_POINT('',(-0.0245971737121744,0.0245971737121744,0.0230979292576999));
#642=CARTESIAN_POINT('',(-0.0133118944876473,0.0321377562129578,0.0230979292576999));
#643=CARTESIAN_POINT('',(-7.96888596776846E-18,0.0347856566598039,0.0230979292576999));
#644=CARTESIAN_POINT('',(0.0133118944876473,0.0321377562129578,0.0230979292576999));
#645=CARTESIAN_POINT('',(0.0245971737121744,0.0245971737121743,0.0230979292576999));
#646=CARTESIAN_POINT('',(0.0321377562129578,0.0133118944876472,0.0230979292576999));
#647=CARTESIAN_POINT('',(0.0347856566598039,2.71050543121376E-17,0.0230979292576999));
#648=CARTESIAN_POINT('',(0.0321377562129578,-0.0133118944876473,0.0230979292576999));
#649=CARTESIAN_POINT('',(0.0309951686596182,0.0128386192268553,0.0247438433003898));
#650=CARTESIAN_POINT('',(0.0335489288039179,2.64545330086463E-17,0.0247438433003898));
#651=CARTESIAN_POINT('',(0.0309951686596181,-0.0128386192268554,0.0247438433003898));
#652=CARTESIAN_POINT('',(0.0237226750587951,-0.0237226750587951,0.0247438433003898));
#653=CARTESIAN_POINT('',(0.0128386192268553,-0.0309951686596182,0.0247438433003898));
#654=CARTESIAN_POINT('',(6.41034534482054E-18,-0.033548928803918,0.0247438433003898));
#655=CARTESIAN_POINT('',(-0.0128386192268553,-0.0309951686596182,0.0247438433003898));
#656=CARTESIAN_POINT('',(-0.0237226750587951,-0.0237226750587951,0.0247438433003898));
#657=CARTESIAN_POINT('',(-0.0309951686596181,-0.0128386192268553,0.0247438433003898));
#658=CARTESIAN_POINT('',(-0.033548928803918,-1.41406856588185E-18,0.0247438433003898));
#659=CARTESIAN_POINT('',(-0.0309951686596182,0.0128386192268554,0.0247438433003898));
#660=CARTESIAN_POINT('',(-0.0237226750587951,0.0237226750587951,0.0247438433003898));
#661=CARTESIAN_POINT('',(-0.0128386192268554,0.0309951686596181,0.0247438433003898));
#662=CARTESIAN_POINT('',(-2.54787510534094E-18,0.0335489288039179,0.0247438433003898));
#663=CARTESIAN_POINT('',(0.0128386192268553,0.0309951686596182,0.0247438433003898));
#664=CARTESIAN_POINT('',(0.0237226750587951,0.0237226750587951,0.0247438433003898));
#665=CARTESIAN_POINT('',(0.0309951686596182,0.0128386192268553,0.0247438433003898));
#666=CARTESIAN_POINT('',(0.0335489288039179,2.64545330086463E-17,0.0247438433003898));
#667=CARTESIAN_POINT('',(0.0309951686596181,-0.0128386192268554,0.0247438433003898));
#668=CARTESIAN_POINT('',(0.0270596505439212,0.0112084742483686,0.0268761635085096));
#669=CARTESIAN_POINT('',(0.0292891546913781,1.99493199737333E-17,0.0268761635085096));
#670=CARTESIAN_POINT('',(0.0270596505439212,-0.0112084742483687,0.0268761635085096));
#671=CARTESIAN_POINT('',(0.0207105598974953,-0.0207105598974953,0.0268761635085096));
#672=CARTESIAN_POINT('',(0.0112084742483687,-0.0270596505439212,0.0268761635085096));
#673=CARTESIAN_POINT('',(-2.29037708937563E-18,-0.0292891546913781,0.0268761635085096));
#674=CARTESIAN_POINT('',(-0.0112084742483686,-0.0270596505439212,0.0268761635085096));
#675=CARTESIAN_POINT('',(-0.0207105598974953,-0.0207105598974953,0.0268761635085096));
#676=CARTESIAN_POINT('',(-0.0270596505439212,-0.0112084742483687,0.0268761635085096));
#677=CARTESIAN_POINT('',(-0.0292891546913781,-5.55733022737626E-20,0.0268761635085096));
#678=CARTESIAN_POINT('',(-0.0270596505439212,0.0112084742483687,0.0268761635085096));
#679=CARTESIAN_POINT('',(-0.0207105598974953,0.0207105598974953,0.0268761635085096));
#680=CARTESIAN_POINT('',(-0.0112084742483687,0.0270596505439212,0.0268761635085096));
#681=CARTESIAN_POINT('',(-1.00695276769591E-17,0.0292891546913782,0.0268761635085096));
#682=CARTESIAN_POINT('',(0.0112084742483687,0.0270596505439212,0.0268761635085096));
#683=CARTESIAN_POINT('',(0.0207105598974953,0.0207105598974953,0.0268761635085096));
#684=CARTESIAN_POINT('',(0.0270596505439212,0.0112084742483686,0.0268761635085096));
#685=CARTESIAN_POINT('',(0.0292891546913781,1.99493199737333E-17,0.0268761635085096));
#686=CARTESIAN_POINT('',(0.0270596505439212,-0.0112084742483687,0.0268761635085096));
#687=CARTESIAN_POINT('',(0.0223676464361241,0.00926498251220878,0.02844535086344));
#688=CARTESIAN_POINT('',(0.0242105660413587,1.95156391047391E-17,0.02844535086344));
#689=CARTESIAN_POINT('',(0.0223676464361241,-0.00926498251220884,0.02844535086344));
#690=CARTESIAN_POINT('',(0.0171194554242095,-0.0171194554242095,0.02844535086344));
#691=CARTESIAN_POINT('',(0.00926498251220882,-0.0223676464361241,0.02844535086344));
#692=CARTESIAN_POINT('',(1.0638733817514E-18,-0.0242105660413587,0.02844535086344));
#693=CARTESIAN_POINT('',(-0.00926498251220882,-0.0223676464361241,0.02844535086344));
#694=CARTESIAN_POINT('',(-0.0171194554242095,-0.0171194554242095,0.02844535086344));
#695=CARTESIAN_POINT('',(-0.0223676464361241,-0.00926498251220883,0.02844535086344));
#696=CARTESIAN_POINT('',(-0.0242105660413587,9.3516407843815E-19,0.02844535086344));
#697=CARTESIAN_POINT('',(-0.0223676464361241,0.00926498251220883,0.02844535086344));
#698=CARTESIAN_POINT('',(-0.0171194554242095,0.0171194554242095,0.02844535086344));
#699=CARTESIAN_POINT('',(-0.00926498251220884,0.0223676464361241,0.02844535086344));
#700=CARTESIAN_POINT('',(3.84891771232354E-18,0.0242105660413587,0.02844535086344));
#701=CARTESIAN_POINT('',(0.00926498251220883,0.0223676464361241,0.02844535086344));
#702=CARTESIAN_POINT('',(0.0171194554242095,0.0171194554242095,0.02844535086344));
#703=CARTESIAN_POINT('',(0.0223676464361241,0.00926498251220878,0.02844535086344));
#704=CARTESIAN_POINT('',(0.0242105660413587,1.95156391047391E-17,0.02844535086344));
#705=CARTESIAN_POINT('',(0.0223676464361241,-0.00926498251220884,0.02844535086344));
#706=CARTESIAN_POINT('',(0.0142380885287905,0.00589760937089376,0.0300873555250397));
#707=CARTESIAN_POINT('',(0.0154111959706354,1.04083408558608E-17,0.0300873555250397));
#708=CARTESIAN_POINT('',(0.0142380885287904,-0.00589760937089379,0.0300873555250397));
#709=CARTESIAN_POINT('',(0.0108973611770311,-0.0108973611770311,0.0300873555250397));
#710=CARTESIAN_POINT('',(0.00589760937089379,-0.0142380885287904,0.0300873555250397));
#711=CARTESIAN_POINT('',(1.49077798716757E-18,-0.0154111959706354,0.0300873555250397));
#712=CARTESIAN_POINT('',(-0.0058976093708938,-0.0142380885287904,0.0300873555250397));
#713=CARTESIAN_POINT('',(-0.0108973611770311,-0.0108973611770311,0.0300873555250397));
#714=CARTESIAN_POINT('',(-0.0142380885287905,-0.00589760937089379,0.0300873555250397));
#715=CARTESIAN_POINT('',(-0.0154111959706354,3.02286206540359E-18,0.0300873555250397));
#716=CARTESIAN_POINT('',(-0.0142380885287905,0.00589760937089379,0.0300873555250397));
#717=CARTESIAN_POINT('',(-0.0108973611770311,0.0108973611770311,0.0300873555250397));
#718=CARTESIAN_POINT('',(-0.00589760937089378,0.0142380885287904,0.0300873555250397));
#719=CARTESIAN_POINT('',(-7.26415455565288E-18,0.0154111959706354,0.0300873555250397));
#720=CARTESIAN_POINT('',(0.00589760937089379,0.0142380885287905,0.0300873555250397));
#721=CARTESIAN_POINT('',(0.0108973611770311,0.0108973611770311,0.0300873555250397));
#722=CARTESIAN_POINT('',(0.0142380885287905,0.00589760937089376,0.0300873555250397));
#723=CARTESIAN_POINT('',(0.0154111959706354,1.04083408558608E-17,0.0300873555250397));
#724=CARTESIAN_POINT('',(0.0142380885287904,-0.00589760937089379,0.0300873555250397));
#725=CARTESIAN_POINT('',(0.00703544861273303,0.00291417823277298,0.0306830138896601));
#726=CARTESIAN_POINT('',(0.00761511470398016,6.28837260041593E-18,0.0306830138896601));
#727=CARTESIAN_POINT('',(0.00703544861273301,-0.002914178232773,0.0306830138896601));
#728=CARTESIAN_POINT('',(0.00538469924669776,-0.00538469924669775,0.0306830138896601));
#729=CARTESIAN_POINT('',(0.00291417823277299,-0.00703544861273302,0.0306830138896601));
#730=CARTESIAN_POINT('',(-2.74438674910393E-18,-0.00761511470398016,0.0306830138896601));
#731=CARTESIAN_POINT('',(-0.00291417823277299,-0.00703544861273301,0.0306830138896601));
#732=CARTESIAN_POINT('',(-0.00538469924669776,-0.00538469924669776,0.0306830138896601));
#733=CARTESIAN_POINT('',(-0.00703544861273302,-0.00291417823277299,0.0306830138896601));
#734=CARTESIAN_POINT('',(-0.00761511470398016,1.39437835858064E-18,0.0306830138896601));
#735=CARTESIAN_POINT('',(-0.00703544861273302,0.002914178232773,0.0306830138896601));
#736=CARTESIAN_POINT('',(-0.00538469924669776,0.00538469924669776,0.0306830138896601));
#737=CARTESIAN_POINT('',(-0.00291417823277299,0.00703544861273302,0.0306830138896601));
#738=CARTESIAN_POINT('',(1.38913403349705E-19,0.00761511470398016,0.0306830138896601));
#739=CARTESIAN_POINT('',(0.00291417823277299,0.00703544861273302,0.0306830138896601));
#740=CARTESIAN_POINT('',(0.00538469924669777,0.00538469924669776,0.0306830138896601));
#741=CARTESIAN_POINT('',(0.00703544861273303,0.00291417823277298,0.0306830138896601));
#742=CARTESIAN_POINT('',(0.00761511470398016,6.28837260041593E-18,0.0306830138896601));
#743=CARTESIAN_POINT('',(0.00703544861273301,-0.002914178232773,0.0306830138896601));
#744=CARTESIAN_POINT('',(0.00236982967895512,0.000981615593537481,0.030776037894001));
#745=CARTESIAN_POINT('',(0.00256508516052244,1.89735380184963E-18,0.030776037894001));
#746=CARTESIAN_POINT('',(0.00236982967895511,-0.000981615593537487,0.030776037894001));
#747=CARTESIAN_POINT('',(0.0018137891113264,-0.0018137891113264,0.030776037894001));
#748=CARTESIAN_POINT('',(0.000981615593537484,-0.00236982967895511,0.030776037894001));
#749=CARTESIAN_POINT('',(-1.3992984288641E-18,-0.00256508516052244,0.030776037894001));
#750=CARTESIAN_POINT('',(-0.000981615593537488,-0.00236982967895511,0.030776037894001));
#751=CARTESIAN_POINT('',(-0.0018137891113264,-0.0018137891113264,0.030776037894001));
#752=CARTESIAN_POINT('',(-0.00236982967895512,-0.000981615593537483,0.030776037894001));
#753=CARTESIAN_POINT('',(-0.00256508516052244,3.4524847863126E-18,0.030776037894001));
#754=CARTESIAN_POINT('',(-0.00236982967895511,0.00098161559353749,0.030776037894001));
#755=CARTESIAN_POINT('',(-0.0018137891113264,0.00181378911132641,0.030776037894001));
#756=CARTESIAN_POINT('',(-0.000981615593537485,0.00236982967895512,0.030776037894001));
#757=CARTESIAN_POINT('',(1.58225754547103E-18,0.00256508516052245,0.030776037894001));
#758=CARTESIAN_POINT('',(0.000981615593537488,0.00236982967895512,0.030776037894001));
#759=CARTESIAN_POINT('',(0.00181378911132641,0.0018137891113264,0.030776037894001));
#760=CARTESIAN_POINT('',(0.00236982967895512,0.000981615593537481,0.030776037894001));
#761=CARTESIAN_POINT('',(0.00256508516052244,1.89735380184963E-18,0.030776037894001));
#762=CARTESIAN_POINT('',(0.00236982967895511,-0.000981615593537487,0.030776037894001));
#763=CARTESIAN_POINT('',(0.,1.92881870865708E-18,0.022));
#764=CARTESIAN_POINT('',(-0.0339,1.92881870865708E-18,0.022));
#765=CARTESIAN_POINT('',(0.,2.1492551325036E-18,0.022));
#766=CARTESIAN_POINT('',(0.,2.1492551325036E-18,0.022));
#767=CARTESIAN_POINT('',(0.0351,2.1492551325036E-18,0.022));
#768=CARTESIAN_POINT('',(0.0239381424381937,0.0256705149268329,0.0044));
#769=CARTESIAN_POINT('',(0.0239381424381937,0.0256705149268329,0.0044));
#770=CARTESIAN_POINT('',(0.0239381424381937,0.0256705149268329,0.002));
#771=CARTESIAN_POINT('',(-2.1492551325036E-18,-3.94811762785734E-34,0.0044));
#772=CARTESIAN_POINT('',(0.00244845222841879,0.0350144981641198,0.0044));
#773=CARTESIAN_POINT('',(0.00244845222841879,0.0350144981641198,0.0044));
#774=CARTESIAN_POINT('',(0.00244845222841879,0.0350144981641198,0.002));
#775=CARTESIAN_POINT('',(0.,2.1492551325036E-18,0.002));
#776=CARTESIAN_POINT('',(-0.0256705149268329,0.0239381424381937,0.002));
#777=CARTESIAN_POINT('',(-0.0256705149268329,0.0239381424381937,0.0044));
#778=CARTESIAN_POINT('',(-0.0256705149268329,0.0239381424381937,0.0044));
#779=CARTESIAN_POINT('',(2.63207841857156E-34,-2.1492551325036E-18,0.0044));
#780=CARTESIAN_POINT('',(-0.0350144981641198,0.00244845222841879,0.0044));
#781=CARTESIAN_POINT('',(-0.0350144981641198,0.00244845222841879,0.0044));
#782=CARTESIAN_POINT('',(-0.0350144981641198,0.00244845222841879,0.002));
#783=CARTESIAN_POINT('',(0.,2.1492551325036E-18,0.002));
#784=CARTESIAN_POINT('',(-0.0239381424381937,-0.0256705149268329,0.002));
#785=CARTESIAN_POINT('',(-0.0239381424381937,-0.0256705149268329,0.0044));
#786=CARTESIAN_POINT('',(-0.0239381424381937,-0.0256705149268329,0.0044));
#787=CARTESIAN_POINT('',(2.1492551325036E-18,1.31603920928578E-34,0.0044));
#788=CARTESIAN_POINT('',(-0.00244845222841879,-0.0350144981641198,0.0044));
#789=CARTESIAN_POINT('',(-0.00244845222841879,-0.0350144981641198,0.0044));
#790=CARTESIAN_POINT('',(-0.00244845222841879,-0.0350144981641198,0.002));
#791=CARTESIAN_POINT('',(0.,2.1492551325036E-18,0.002));
#792=CARTESIAN_POINT('',(0.0256705149268329,-0.0239381424381937,0.002));
#793=CARTESIAN_POINT('',(0.0256705149268329,-0.0239381424381937,0.0044));
#794=CARTESIAN_POINT('',(0.0256705149268329,-0.0239381424381937,0.0044));
#795=CARTESIAN_POINT('',(0.,2.1492551325036E-18,0.0044));
#796=CARTESIAN_POINT('',(0.0350144981641198,-0.0024484522284188,0.0044));
#797=CARTESIAN_POINT('',(0.0350144981641198,-0.0024484522284188,0.0044));
#798=CARTESIAN_POINT('',(0.0350144981641198,-0.0024484522284188,0.002));
#799=CARTESIAN_POINT('',(0.,2.1492551325036E-18,0.002));
#800=CARTESIAN_POINT('',(0.,2.07577632455476E-18,0.022));
#801=CARTESIAN_POINT('',(0.,2.07577632455476E-18,0.002));
#802=CARTESIAN_POINT('',(0.0339,2.07577632455476E-18,0.002));
#803=CARTESIAN_POINT('',(6.93889390390723E-18,0.,0.002));
#804=CARTESIAN_POINT('',(0.0185048131323197,-0.00129398258795352,0.002));
#805=CARTESIAN_POINT('',(0.0370096262646395,-0.00258796517590705,0.002));
#806=CARTESIAN_POINT('',(-8.15320033709099E-17,3.64291929955129E-17,0.002));
#807=CARTESIAN_POINT('',(0.0271332223300713,-0.0253021391583186,0.002));
#808=CARTESIAN_POINT('',(0.0135666111650356,-0.0126510695791593,0.002));
#809=CARTESIAN_POINT('',(-0.00129398258795352,-0.0185048131323197,0.002));
#810=CARTESIAN_POINT('',(-0.00258796517590705,-0.0370096262646395,0.002));
#811=CARTESIAN_POINT('',(3.64291929955129E-17,8.15320033709099E-17,0.002));
#812=CARTESIAN_POINT('',(-0.0253021391583186,-0.0271332223300713,0.002));
#813=CARTESIAN_POINT('',(-0.0126510695791593,-0.0135666111650356,0.002));
#814=CARTESIAN_POINT('',(-0.0185048131323197,0.00129398258795352,0.002));
#815=CARTESIAN_POINT('',(-0.0370096262646395,0.00258796517590705,0.002));
#816=CARTESIAN_POINT('',(8.15320033709099E-17,-3.64291929955129E-17,0.002));
#817=CARTESIAN_POINT('',(-0.0271332223300713,0.0253021391583186,0.002));
#818=CARTESIAN_POINT('',(-0.0135666111650356,0.0126510695791593,0.002));
#819=CARTESIAN_POINT('',(0.00129398258795352,0.0185048131323197,0.002));
#820=CARTESIAN_POINT('',(0.00258796517590704,0.0370096262646395,0.002));
#821=CARTESIAN_POINT('',(-3.64291929955129E-17,-8.153200337091E-17,0.002));
#822=CARTESIAN_POINT('',(0.0253021391583186,0.0271332223300713,0.002));
#823=CARTESIAN_POINT('',(0.0126510695791593,0.0135666111650356,0.002));
#824=CARTESIAN_POINT('',(0.0332724086925298,0.0137818829332662,0.022));
#825=CARTESIAN_POINT('',(0.0360137956537351,2.68882138776405E-17,0.022));
#826=CARTESIAN_POINT('',(0.0332724086925298,-0.0137818829332663,0.022));
#827=CARTESIAN_POINT('',(0.0254655991230227,-0.0254655991230227,0.022));
#828=CARTESIAN_POINT('',(0.0137818829332663,-0.0332724086925298,0.022));
#829=CARTESIAN_POINT('',(5.88179678573386E-18,-0.0360137956537351,0.022));
#830=CARTESIAN_POINT('',(-0.0137818829332663,-0.0332724086925298,0.022));
#831=CARTESIAN_POINT('',(-0.0254655991230227,-0.0254655991230227,0.022));
#832=CARTESIAN_POINT('',(-0.0332724086925298,-0.0137818829332663,0.022));
#833=CARTESIAN_POINT('',(-0.0360137956537351,-3.32936887830143E-19,0.022));
#834=CARTESIAN_POINT('',(-0.0332724086925298,0.0137818829332663,0.022));
#835=CARTESIAN_POINT('',(-0.0254655991230227,0.0254655991230227,0.022));
#836=CARTESIAN_POINT('',(-0.0137818829332663,0.0332724086925298,0.022));
#837=CARTESIAN_POINT('',(-6.69494841509799E-18,0.0360137956537351,0.022));
#838=CARTESIAN_POINT('',(0.0137818829332663,0.0332724086925298,0.022));
#839=CARTESIAN_POINT('',(0.0254655991230227,0.0254655991230227,0.022));
#840=CARTESIAN_POINT('',(0.0332724086925298,0.0137818829332662,0.022));
#841=CARTESIAN_POINT('',(0.0360137956537351,2.68882138776405E-17,0.022));
#842=CARTESIAN_POINT('',(0.0332724086925298,-0.0137818829332663,0.022));
#843=CARTESIAN_POINT('',(0.0332759981508544,0.0137833697355858,0.0233092014593176));
#844=CARTESIAN_POINT('',(0.0360176808554288,2.81892564846231E-17,0.0233092014593176));
#845=CARTESIAN_POINT('',(0.0332759981508543,-0.0137833697355859,0.0233092014593176));
#846=CARTESIAN_POINT('',(0.0254683463754866,-0.0254683463754866,0.0233092014593176));
#847=CARTESIAN_POINT('',(0.0137833697355859,-0.0332759981508543,0.0233092014593176));
#848=CARTESIAN_POINT('',(1.92445885616177E-18,-0.0360176808554288,0.0233092014593176));
#849=CARTESIAN_POINT('',(-0.0137833697355859,-0.0332759981508543,0.0233092014593176));
#850=CARTESIAN_POINT('',(-0.0254683463754866,-0.0254683463754866,0.0233092014593176));
#851=CARTESIAN_POINT('',(-0.0332759981508543,-0.0137833697355859,0.0233092014593176));
#852=CARTESIAN_POINT('',(-0.0360176808554288,-9.67099867527597E-19,0.0233092014593176));
#853=CARTESIAN_POINT('',(-0.0332759981508543,0.0137833697355859,0.0233092014593176));
#854=CARTESIAN_POINT('',(-0.0254683463754866,0.0254683463754866,0.0233092014593176));
#855=CARTESIAN_POINT('',(-0.0137833697355859,0.0332759981508543,0.0233092014593176));
#856=CARTESIAN_POINT('',(-4.98732999343332E-18,0.0360176808554288,0.0233092014593176));
#857=CARTESIAN_POINT('',(0.0137833697355859,0.0332759981508543,0.0233092014593176));
#858=CARTESIAN_POINT('',(0.0254683463754866,0.0254683463754866,0.0233092014593176));
#859=CARTESIAN_POINT('',(0.0332759981508544,0.0137833697355858,0.0233092014593176));
#860=CARTESIAN_POINT('',(0.0360176808554288,2.81892564846231E-17,0.0233092014593176));
#861=CARTESIAN_POINT('',(0.0332759981508543,-0.0137833697355859,0.0233092014593176));
#862=CARTESIAN_POINT('',(0.0319714591968932,0.0132430120082111,0.0252715894376417));
#863=CARTESIAN_POINT('',(0.0346056580666837,2.34187669256869E-17,0.0252715894376416));
#864=CARTESIAN_POINT('',(0.0319714591968932,-0.0132430120082112,0.0252715894376417));
#865=CARTESIAN_POINT('',(0.024469895486375,-0.024469895486375,0.0252715894376416));
#866=CARTESIAN_POINT('',(0.0132430120082112,-0.0319714591968932,0.0252715894376417));
#867=CARTESIAN_POINT('',(1.60732972070976E-17,-0.0346056580666837,0.0252715894376416));
#868=CARTESIAN_POINT('',(-0.0132430120082112,-0.0319714591968932,0.0252715894376417));
#869=CARTESIAN_POINT('',(-0.024469895486375,-0.024469895486375,0.0252715894376416));
#870=CARTESIAN_POINT('',(-0.0319714591968932,-0.0132430120082112,0.0252715894376417));
#871=CARTESIAN_POINT('',(-0.0346056580666837,4.31801514642481E-19,0.0252715894376416));
#872=CARTESIAN_POINT('',(-0.0319714591968932,0.0132430120082112,0.0252715894376417));
#873=CARTESIAN_POINT('',(-0.024469895486375,0.024469895486375,0.0252715894376416));
#874=CARTESIAN_POINT('',(-0.0132430120082112,0.0319714591968932,0.0252715894376416));
#875=CARTESIAN_POINT('',(-5.2583805365547E-18,0.0346056580666837,0.0252715894376416));
#876=CARTESIAN_POINT('',(0.0132430120082112,0.0319714591968932,0.0252715894376417));
#877=CARTESIAN_POINT('',(0.024469895486375,0.024469895486375,0.0252715894376417));
#878=CARTESIAN_POINT('',(0.0319714591968932,0.0132430120082111,0.0252715894376417));
#879=CARTESIAN_POINT('',(0.0346056580666837,2.34187669256869E-17,0.0252715894376416));
#880=CARTESIAN_POINT('',(0.0319714591968932,-0.0132430120082112,0.0252715894376417));
#881=CARTESIAN_POINT('',(0.0274994410995871,0.011390641461129,0.027784968453391));
#882=CARTESIAN_POINT('',(0.0297651805585931,2.29850860566927E-17,0.027784968453391));
#883=CARTESIAN_POINT('',(0.0274994410995871,-0.0113906414611291,0.027784968453391));
#884=CARTESIAN_POINT('',(0.0210471610162232,-0.0210471610162232,0.027784968453391));
#885=CARTESIAN_POINT('',(0.0113906414611291,-0.0274994410995871,0.027784968453391));
#886=CARTESIAN_POINT('',(-1.32814766129474E-18,-0.0297651805585931,0.027784968453391));
#887=CARTESIAN_POINT('',(-0.0113906414611291,-0.0274994410995871,0.027784968453391));
#888=CARTESIAN_POINT('',(-0.0210471610162232,-0.0210471610162232,0.027784968453391));
#889=CARTESIAN_POINT('',(-0.0274994410995871,-0.011390641461129,0.027784968453391));
#890=CARTESIAN_POINT('',(-0.0297651805585931,-3.22732787793689E-18,0.027784968453391));
#891=CARTESIAN_POINT('',(-0.0274994410995871,0.0113906414611291,0.027784968453391));
#892=CARTESIAN_POINT('',(-0.0210471610162232,0.0210471610162232,0.027784968453391));
#893=CARTESIAN_POINT('',(-0.0113906414611291,0.0274994410995871,0.027784968453391));
#894=CARTESIAN_POINT('',(-8.36190925529445E-18,0.0297651805585931,0.027784968453391));
#895=CARTESIAN_POINT('',(0.0113906414611291,0.0274994410995871,0.027784968453391));
#896=CARTESIAN_POINT('',(0.0210471610162232,0.0210471610162232,0.027784968453391));
#897=CARTESIAN_POINT('',(0.0274994410995871,0.011390641461129,0.027784968453391));
#898=CARTESIAN_POINT('',(0.0297651805585931,2.29850860566927E-17,0.027784968453391));
#899=CARTESIAN_POINT('',(0.0274994410995871,-0.0113906414611291,0.027784968453391));
#900=CARTESIAN_POINT('',(0.0221900950328492,0.00919143831295393,0.0296045614150018));
#901=CARTESIAN_POINT('',(0.0240183857873029,1.73472347597681E-17,0.0296045614150018));
#902=CARTESIAN_POINT('',(0.0221900950328492,-0.00919143831295398,0.0296045614150018));
#903=CARTESIAN_POINT('',(0.0169835634633565,-0.0169835634633565,0.0296045614150018));
#904=CARTESIAN_POINT('',(0.00919143831295398,-0.0221900950328492,0.0296045614150018));
#905=CARTESIAN_POINT('',(3.49655200626575E-18,-0.0240183857873029,0.0296045614150018));
#906=CARTESIAN_POINT('',(-0.00919143831295398,-0.0221900950328492,0.0296045614150018));
#907=CARTESIAN_POINT('',(-0.0169835634633565,-0.0169835634633565,0.0296045614150018));
#908=CARTESIAN_POINT('',(-0.0221900950328492,-0.00919143831295398,0.0296045614150018));
#909=CARTESIAN_POINT('',(-0.0240183857873029,2.36442629781138E-18,0.0296045614150018));
#910=CARTESIAN_POINT('',(-0.0221900950328492,0.00919143831295398,0.0296045614150018));
#911=CARTESIAN_POINT('',(-0.0169835634633565,0.0169835634633565,0.0296045614150018));
#912=CARTESIAN_POINT('',(-0.00919143831295397,0.0221900950328492,0.0296045614150018));
#913=CARTESIAN_POINT('',(-1.2603850255144E-18,0.024018385787303,0.0296045614150018));
#914=CARTESIAN_POINT('',(0.00919143831295398,0.0221900950328492,0.0296045614150018));
#915=CARTESIAN_POINT('',(0.0169835634633565,0.0169835634633565,0.0296045614150018));
#916=CARTESIAN_POINT('',(0.0221900950328492,0.00919143831295393,0.0296045614150018));
#917=CARTESIAN_POINT('',(0.0240183857873029,1.73472347597681E-17,0.0296045614150018));
#918=CARTESIAN_POINT('',(0.0221900950328492,-0.00919143831295398,0.0296045614150018));
#919=CARTESIAN_POINT('',(0.0130595406456371,0.00540943885378554,0.0314395994928806));
#920=CARTESIAN_POINT('',(0.0141355449342391,1.0842021724855E-17,0.0314395994928806));
#921=CARTESIAN_POINT('',(0.0130595406456371,-0.00540943885378557,0.0314395994928806));
#922=CARTESIAN_POINT('',(0.00999533967876759,-0.00999533967876759,0.0314395994928806));
#923=CARTESIAN_POINT('',(0.00540943885378556,-0.0130595406456371,0.0314395994928806));
#924=CARTESIAN_POINT('',(-2.17856874033806E-18,-0.0141355449342391,0.0314395994928806));
#925=CARTESIAN_POINT('',(-0.00540943885378556,-0.0130595406456371,0.0314395994928806));
#926=CARTESIAN_POINT('',(-0.0099953396787676,-0.00999533967876759,0.0314395994928806));
#927=CARTESIAN_POINT('',(-0.0130595406456371,-0.00540943885378556,0.0314395994928806));
#928=CARTESIAN_POINT('',(-0.0141355449342391,1.8733721815305E-18,0.0314395994928806));
#929=CARTESIAN_POINT('',(-0.0130595406456371,0.00540943885378557,0.0314395994928806));
#930=CARTESIAN_POINT('',(-0.0099953396787676,0.00999533967876759,0.0314395994928806));
#931=CARTESIAN_POINT('',(-0.00540943885378557,0.0130595406456371,0.0314395994928806));
#932=CARTESIAN_POINT('',(-5.21772295508649E-18,0.0141355449342391,0.0314395994928806));
#933=CARTESIAN_POINT('',(0.00540943885378557,0.0130595406456371,0.0314395994928806));
#934=CARTESIAN_POINT('',(0.00999533967876761,0.00999533967876759,0.0314395994928806));
#935=CARTESIAN_POINT('',(0.0130595406456371,0.00540943885378554,0.0314395994928806));
#936=CARTESIAN_POINT('',(0.0141355449342391,1.0842021724855E-17,0.0314395994928806));
#937=CARTESIAN_POINT('',(0.0130595406456371,-0.00540943885378557,0.0314395994928806));
#938=CARTESIAN_POINT('',(0.00508262540125698,0.00210529237366262,0.032001995767581));
#939=CARTESIAN_POINT('',(0.00550139409132854,4.49943901581484E-18,0.032001995767581));
#940=CARTESIAN_POINT('',(0.00508262540125696,-0.00210529237366263,0.032001995767581));
#941=CARTESIAN_POINT('',(0.00389007306795802,-0.00389007306795802,0.032001995767581));
#942=CARTESIAN_POINT('',(0.00210529237366263,-0.00508262540125697,0.032001995767581));
#943=CARTESIAN_POINT('',(-4.04881748787556E-19,-0.00550139409132854,0.032001995767581));
#944=CARTESIAN_POINT('',(-0.00210529237366263,-0.00508262540125696,0.032001995767581));
#945=CARTESIAN_POINT('',(-0.00389007306795802,-0.00389007306795802,0.032001995767581));
#946=CARTESIAN_POINT('',(-0.00508262540125697,-0.00210529237366263,0.032001995767581));
#947=CARTESIAN_POINT('',(-0.00550139409132854,2.79747850954004E-18,0.032001995767581));
#948=CARTESIAN_POINT('',(-0.00508262540125697,0.00210529237366264,0.032001995767581));
#949=CARTESIAN_POINT('',(-0.00389007306795802,0.00389007306795802,0.032001995767581));
#950=CARTESIAN_POINT('',(-0.00210529237366263,0.00508262540125697,0.032001995767581));
#951=CARTESIAN_POINT('',(2.50044126029469E-18,0.00550139409132855,0.032001995767581));
#952=CARTESIAN_POINT('',(0.00210529237366263,0.00508262540125697,0.032001995767581));
#953=CARTESIAN_POINT('',(0.00389007306795802,0.00389007306795802,0.032001995767581));
#954=CARTESIAN_POINT('',(0.00508262540125698,0.00210529237366262,0.032001995767581));
#955=CARTESIAN_POINT('',(0.00550139409132854,4.49943901581484E-18,0.032001995767581));
#956=CARTESIAN_POINT('',(0.00508262540125696,-0.00210529237366263,0.032001995767581));
#957=CARTESIAN_POINT('',(5.50908436163014E-17,2.26061026574444E-17,0.032));
#958=CARTESIAN_POINT('',(5.88101568393904E-17,-5.02149901086113E-20,0.032));
#959=CARTESIAN_POINT('',(5.35761567990817E-17,-2.24052426970099E-17,0.032));
#960=CARTESIAN_POINT('',(4.01856725551835E-17,-4.10556301437143E-17,0.032));
#961=CARTESIAN_POINT('',(2.06772839487874E-17,-5.31620249076443E-17,0.032));
#962=CARTESIAN_POINT('',(-1.97903369876572E-18,-5.68813381307334E-17,0.032));
#963=CARTESIAN_POINT('',(-2.4334061405667E-17,-5.16473380904246E-17,0.032));
#964=CARTESIAN_POINT('',(-4.29844488523714E-17,-3.82568538465264E-17,0.032));
#965=CARTESIAN_POINT('',(-5.50908436163013E-17,-1.87484652401304E-17,0.032));
#966=CARTESIAN_POINT('',(-5.88101568393904E-17,3.90785240742281E-18,0.032));
#967=CARTESIAN_POINT('',(-5.35761567990817E-17,2.6262880114324E-17,0.032));
#968=CARTESIAN_POINT('',(-4.01856725551835E-17,4.49132675610284E-17,0.032));
#969=CARTESIAN_POINT('',(-2.06772839487874E-17,5.70196623249584E-17,0.032));
#970=CARTESIAN_POINT('',(1.97903369876572E-18,6.07389755480475E-17,0.032));
#971=CARTESIAN_POINT('',(2.4334061405667E-17,5.55049755077388E-17,0.032));
#972=CARTESIAN_POINT('',(4.29844488523714E-17,4.21144912638405E-17,0.032));
#973=CARTESIAN_POINT('',(5.50908436163014E-17,2.26061026574444E-17,0.032));
#974=CARTESIAN_POINT('',(5.88101568393904E-17,-5.02149901086113E-20,0.032));
#975=CARTESIAN_POINT('',(5.35761567990817E-17,-2.24052426970099E-17,0.032));
#976=CARTESIAN_POINT('',(3.51550171780237E-18,0.,0.032));
#977=CARTESIAN_POINT('',(0.0135666111650356,-0.0126510695791593,0.0044));
#978=CARTESIAN_POINT('',(0.0271332223300713,-0.0253021391583186,0.0044));
#979=CARTESIAN_POINT('',(0.0271332223300713,-0.0253021391583186,0.0044));
#980=CARTESIAN_POINT('',(0.0135666111650356,-0.0126510695791593,0.0044));
#981=CARTESIAN_POINT('',(0.0185048131323197,-0.00129398258795352,0.0044));
#982=CARTESIAN_POINT('',(0.0185048131323197,-0.00129398258795352,0.0044));
#983=CARTESIAN_POINT('',(0.0370096262646395,-0.00258796517590705,0.0044));
#984=CARTESIAN_POINT('',(0.0370096262646395,-0.00258796517590705,0.0044));
#985=CARTESIAN_POINT('',(-8.15320033709099E-17,3.64291929955129E-17,0.0044));
#986=CARTESIAN_POINT('',(-8.15320033709099E-17,3.64291929955129E-17,0.0044));
#987=CARTESIAN_POINT('',(0.,0.,0.0044));
#988=CARTESIAN_POINT('',(-0.0126510695791593,-0.0135666111650356,0.0044));
#989=CARTESIAN_POINT('',(-0.0253021391583186,-0.0271332223300713,0.0044));
#990=CARTESIAN_POINT('',(-0.0253021391583186,-0.0271332223300713,0.0044));
#991=CARTESIAN_POINT('',(-0.0126510695791593,-0.0135666111650356,0.0044));
#992=CARTESIAN_POINT('',(-0.00129398258795352,-0.0185048131323197,0.0044));
#993=CARTESIAN_POINT('',(-0.00129398258795352,-0.0185048131323197,0.0044));
#994=CARTESIAN_POINT('',(-0.00258796517590705,-0.0370096262646395,0.0044));
#995=CARTESIAN_POINT('',(-0.00258796517590705,-0.0370096262646395,0.0044));
#996=CARTESIAN_POINT('',(3.64291929955129E-17,8.15320033709099E-17,0.0044));
#997=CARTESIAN_POINT('',(3.64291929955129E-17,8.15320033709099E-17,0.0044));
#998=CARTESIAN_POINT('',(0.,0.,0.0044));
#999=CARTESIAN_POINT('',(-0.0135666111650356,0.0126510695791593,0.0044));
#1000=CARTESIAN_POINT('',(-0.0271332223300713,0.0253021391583186,0.0044));
#1001=CARTESIAN_POINT('',(-0.0271332223300713,0.0253021391583186,0.0044));
#1002=CARTESIAN_POINT('',(-0.0135666111650356,0.0126510695791593,0.0044));
#1003=CARTESIAN_POINT('',(-0.0185048131323197,0.00129398258795352,0.0044));
#1004=CARTESIAN_POINT('',(-0.0185048131323197,0.00129398258795352,0.0044));
#1005=CARTESIAN_POINT('',(-0.0370096262646395,0.00258796517590705,0.0044));
#1006=CARTESIAN_POINT('',(-0.0370096262646395,0.00258796517590705,0.0044));
#1007=CARTESIAN_POINT('',(8.15320033709099E-17,-3.64291929955129E-17,0.0044));
#1008=CARTESIAN_POINT('',(8.15320033709099E-17,-3.64291929955129E-17,0.0044));
#1009=CARTESIAN_POINT('',(0.,0.,0.0044));
#1010=CARTESIAN_POINT('',(0.0126510695791593,0.0135666111650356,0.0044));
#1011=CARTESIAN_POINT('',(0.0253021391583186,0.0271332223300713,0.0044));
#1012=CARTESIAN_POINT('',(0.0253021391583186,0.0271332223300713,0.0044));
#1013=CARTESIAN_POINT('',(0.0126510695791593,0.0135666111650356,0.0044));
#1014=CARTESIAN_POINT('',(0.00129398258795352,0.0185048131323197,0.0044));
#1015=CARTESIAN_POINT('',(0.00129398258795352,0.0185048131323197,0.0044));
#1016=CARTESIAN_POINT('',(0.00258796517590704,0.0370096262646395,0.0044));
#1017=CARTESIAN_POINT('',(0.00258796517590704,0.0370096262646395,0.0044));
#1018=CARTESIAN_POINT('',(-3.64291929955129E-17,-8.153200337091E-17,0.0044));
#1019=CARTESIAN_POINT('',(-3.64291929955129E-17,-8.153200337091E-17,0.0044));
#1020=CARTESIAN_POINT('',(0.,0.,0.0044));
#1021=CARTESIAN_POINT('',(0.,-5.20474889637625E-19,0.018));
#1022=CARTESIAN_POINT('',(0.,-5.20474889637625E-19,0.018));
#1023=CARTESIAN_POINT('',(-0.006,-5.20474889637625E-19,0.018));
#1024=CARTESIAN_POINT('',(0.,-5.20474889637625E-19,0.016));
#1025=CARTESIAN_POINT('',(-0.006,-5.20474889637625E-19,0.016));
#1026=CARTESIAN_POINT('',(0.,0.,0.018));
#1027=CARTESIAN_POINT('',(6.93889390390723E-18,0.,0.016));
#1028=MECHANICAL_DESIGN_GEOMETRIC_PRESENTATION_REPRESENTATION('',(#421),
#1029);
#1029=(
GEOMETRIC_REPRESENTATION_CONTEXT(3)
GLOBAL_UNCERTAINTY_ASSIGNED_CONTEXT((#1030))
GLOBAL_UNIT_ASSIGNED_CONTEXT((#1033,#1032,#1031))
REPRESENTATION_CONTEXT('Button','TOP_LEVEL_ASSEMBLY_PART')
);
#1030=UNCERTAINTY_MEASURE_WITH_UNIT(LENGTH_MEASURE(2.E-5),#1033,
'DISTANCE_ACCURACY_VALUE','Maximum Tolerance applied to model');
#1031=(
NAMED_UNIT(*)
SI_UNIT($,.STERADIAN.)
SOLID_ANGLE_UNIT()
);
#1032=(
NAMED_UNIT(*)
PLANE_ANGLE_UNIT()
SI_UNIT($,.RADIAN.)
);
#1033=(
LENGTH_UNIT()
NAMED_UNIT(*)
SI_UNIT($,.METRE.)
);
#1034=PRODUCT_DEFINITION_SHAPE('','',#1035);
#1035=PRODUCT_DEFINITION('','',#1037,#1036);
#1036=PRODUCT_DEFINITION_CONTEXT('',#1043,'design');
#1037=PRODUCT_DEFINITION_FORMATION_WITH_SPECIFIED_SOURCE('','',#1039,
 .NOT_KNOWN.);
#1038=PRODUCT_RELATED_PRODUCT_CATEGORY('','',(#1039));
#1039=PRODUCT('Button','Button','Button',(#1041));
#1040=PRODUCT_CATEGORY('','');
#1041=PRODUCT_CONTEXT('',#1043,'mechanical');
#1042=APPLICATION_PROTOCOL_DEFINITION('international standard',
'ap242_managed_model_based_3d_engineering',2020,#1043);
#1043=APPLICATION_CONTEXT('managed model based 3d engineering');
ENDSEC;
END-ISO-10303-21;
